<svg version="1.1" viewBox="0.0 0.0 960.0 720.0" fill="none" stroke="none" stroke-linecap="square" stroke-miterlimit="10" xmlns:xlink="http://www.w3.org/1999/xlink" xmlns="http://www.w3.org/2000/svg"><clipPath id="p.0"><path d="m0 0l960.0 0l0 720.0l-960.0 0l0 -720.0z" clip-rule="nonzero"/></clipPath><g clip-path="url(#p.0)"><path fill="#000000" fill-opacity="0.0" d="m0 0l960.0 0l0 720.0l-960.0 0z" fill-rule="evenodd"/><path fill="#9dc040" d="m674.3868 71.700775l-499.35785 211.47803l143.44008 338.70303l499.35782 -211.478z" fill-rule="evenodd"/><path stroke="#000000" stroke-width="1.0" stroke-linejoin="round" stroke-linecap="butt" d="m674.3868 71.700775l-499.35785 211.47803l143.44008 338.70303l499.35782 -211.478z" fill-rule="evenodd"/><path fill="#b30fb7" d="m671.91077 517.6247l0 0c0 -32.093414 27.215454 -58.11026 60.787415 -58.11026l0 0c16.121826 0 31.583313 6.1223145 42.983154 17.02008c11.399841 10.897797 17.8042 25.678375 17.8042 41.09018l0 0c0 32.093384 -27.215393 58.11023 -60.787354 58.11023l0 0c-33.57196 0 -60.787415 -26.016846 -60.787415 -58.11023zm29.055115 0c0 16.046692 14.207031 29.055115 31.7323 29.055115c17.525208 0 31.732239 -13.008423 31.732239 -29.055115c0 -16.046722 -14.207031 -29.055145 -31.732239 -29.055145l0 0c-17.525269 0 -31.7323 13.008423 -31.7323 29.055145z" fill-rule="evenodd"/><path stroke="#000000" stroke-width="1.0" stroke-linejoin="round" stroke-linecap="butt" d="m671.91077 517.6247l0 0c0 -32.093414 27.215454 -58.11026 60.787415 -58.11026l0 0c16.121826 0 31.583313 6.1223145 42.983154 17.02008c11.399841 10.897797 17.8042 25.678375 17.8042 41.09018l0 0c0 32.093384 -27.215393 58.11023 -60.787354 58.11023l0 0c-33.57196 0 -60.787415 -26.016846 -60.787415 -58.11023zm29.055115 0c0 16.046692 14.207031 29.055115 31.7323 29.055115c17.525208 0 31.732239 -13.008423 31.732239 -29.055115c0 -16.046722 -14.207031 -29.055145 -31.732239 -29.055145l0 0c-17.525269 0 -31.7323 13.008423 -31.7323 29.055145z" fill-rule="evenodd"/><path fill="#512729" d="m708.71075 523.0759l0.234375 1.453125q-0.6875 0.140625 -1.234375 0.140625q-0.890625 0 -1.390625 -0.28125q-0.484375 -0.28125 -0.6875 -0.734375q-0.203125 -0.46875 -0.203125 -1.9375l0 -5.578125l-1.203125 0l0 -1.265625l1.203125 0l0 -2.390625l1.625 -0.984375l0 3.375l1.65625 0l0 1.265625l-1.65625 0l0 5.671875q0 0.6875 0.078125 0.890625q0.09375 0.203125 0.28125 0.328125q0.203125 0.109375 0.578125 0.109375q0.265625 0 0.71875 -0.0625zm8.230225 -1.640625l1.6875 0.203125q-0.40625 1.484375 -1.484375 2.3125q-1.078125 0.8125 -2.765625 0.8125q-2.125 0 -3.375 -1.296875q-1.234375 -1.3125 -1.234375 -3.671875q0 -2.453125 1.25 -3.796875q1.265625 -1.34375 3.265625 -1.34375q1.9375 0 3.15625 1.328125q1.234375 1.3125 1.234375 3.703125q0 0.15625 0 0.4375l-7.21875 0q0.09375 1.59375 0.90625 2.453125q0.8125 0.84375 2.015625 0.84375q0.90625 0 1.546875 -0.46875q0.640625 -0.484375 1.015625 -1.515625zm-5.390625 -2.65625l5.40625 0q-0.109375 -1.21875 -0.625 -1.828125q-0.78125 -0.953125 -2.03125 -0.953125q-1.125 0 -1.90625 0.765625q-0.765625 0.75 -0.84375 2.015625zm8.485046 2.875l1.625 -0.25q0.125 0.96875 0.75 1.5q0.625 0.515625 1.75 0.515625q1.125 0 1.671875 -0.453125q0.546875 -0.46875 0.546875 -1.09375q0 -0.546875 -0.484375 -0.875q-0.328125 -0.21875 -1.671875 -0.546875q-1.8125 -0.46875 -2.515625 -0.796875q-0.6875 -0.328125 -1.046875 -0.90625q-0.359375 -0.59375 -0.359375 -1.3125q0 -0.640625 0.296875 -1.1875q0.296875 -0.5625 0.8125 -0.921875q0.375 -0.28125 1.03125 -0.46875q0.671875 -0.203125 1.421875 -0.203125q1.140625 0 2.0 0.328125q0.859375 0.328125 1.265625 0.890625q0.421875 0.5625 0.578125 1.5l-1.609375 0.21875q-0.109375 -0.75 -0.640625 -1.171875q-0.515625 -0.421875 -1.46875 -0.421875q-1.140625 0 -1.625 0.375q-0.46875 0.375 -0.46875 0.875q0 0.3125 0.1875 0.578125q0.203125 0.265625 0.640625 0.4375q0.234375 0.09375 1.4375 0.421875q1.75 0.453125 2.4375 0.75q0.6875 0.296875 1.078125 0.859375q0.390625 0.5625 0.390625 1.40625q0 0.828125 -0.484375 1.546875q-0.46875 0.71875 -1.375 1.125q-0.90625 0.390625 -2.046875 0.390625q-1.875 0 -2.875 -0.78125q-0.984375 -0.78125 -1.25 -2.328125zm13.5625 1.421875l0.234375 1.453125q-0.6875 0.140625 -1.234375 0.140625q-0.890625 0 -1.390625 -0.28125q-0.484375 -0.28125 -0.6875 -0.734375q-0.203125 -0.46875 -0.203125 -1.9375l0 -5.578125l-1.203125 0l0 -1.265625l1.203125 0l0 -2.390625l1.625 -0.984375l0 3.375l1.65625 0l0 1.265625l-1.65625 0l0 5.671875q0 0.6875 0.078125 0.890625q0.09375 0.203125 0.28125 0.328125q0.203125 0.109375 0.578125 0.109375q0.265625 0 0.71875 -0.0625zm1.6052246 -10.0l0 -1.890625l1.640625 0l0 1.890625l-1.640625 0zm0 11.46875l0 -9.671875l1.640625 0l0 9.671875l-1.640625 0zm4.1447754 0l0 -9.671875l1.46875 0l0 1.375q1.0625 -1.59375 3.078125 -1.59375q0.875 0 1.609375 0.3125q0.734375 0.3125 1.09375 0.828125q0.375 0.5 0.515625 1.203125q0.09375 0.453125 0.09375 1.59375l0 5.953125l-1.640625 0l0 -5.890625q0 -1.0 -0.203125 -1.484375q-0.1875 -0.5 -0.671875 -0.796875q-0.484375 -0.296875 -1.140625 -0.296875q-1.046875 0 -1.8125 0.671875q-0.75 0.65625 -0.75 2.515625l0 5.28125l-1.640625 0zm10.063232 0.796875l1.59375 0.234375q0.109375 0.75 0.5625 1.078125q0.609375 0.453125 1.671875 0.453125q1.140625 0 1.75 -0.453125q0.625 -0.453125 0.84375 -1.265625q0.125 -0.5 0.109375 -2.109375q-1.0625 1.265625 -2.671875 1.265625q-2.0 0 -3.09375 -1.4375q-1.09375 -1.4375 -1.09375 -3.453125q0 -1.390625 0.5 -2.5625q0.515625 -1.171875 1.453125 -1.796875q0.953125 -0.640625 2.25 -0.640625q1.703125 0 2.8125 1.375l0 -1.15625l1.515625 0l0 8.359375q0 2.265625 -0.46875 3.203125q-0.453125 0.9375 -1.453125 1.484375q-0.984375 0.546875 -2.453125 0.546875q-1.71875 0 -2.796875 -0.78125q-1.0625 -0.765625 -1.03125 -2.34375zm1.359375 -5.8125q0 1.90625 0.75 2.78125q0.765625 0.875 1.90625 0.875q1.125 0 1.890625 -0.859375q0.765625 -0.875 0.765625 -2.734375q0 -1.78125 -0.796875 -2.671875q-0.78125 -0.90625 -1.890625 -0.90625q-1.09375 0 -1.859375 0.890625q-0.765625 0.875 -0.765625 2.625z" fill-rule="nonzero"/><path fill="#b30fb7" d="m376.69815 637.85565l0 0c0 -32.093384 25.12143 -58.11023 56.11026 -58.11023l0 0c14.881348 0 29.153198 6.1223145 39.675903 17.02008c10.522736 10.897766 16.434326 25.678345 16.434326 41.09015l0 0c0 32.093384 -25.121399 58.11023 -56.11023 58.11023l0 0c-30.98883 0 -56.11026 -26.016846 -56.11026 -58.11023zm28.055145 0l0 0c0 16.598999 12.560699 30.055115 28.055115 30.055115c15.494415 0 28.055115 -13.456116 28.055115 -30.055115l0 0c0 -16.598999 -12.560699 -30.055115 -28.055115 -30.055115l0 0c-15.494415 0 -28.055115 13.456116 -28.055115 30.055115z" fill-rule="evenodd"/><path stroke="#000000" stroke-width="1.0" stroke-linejoin="round" stroke-linecap="butt" d="m376.69815 637.85565l0 0c0 -32.093384 25.12143 -58.11023 56.11026 -58.11023l0 0c14.881348 0 29.153198 6.1223145 39.675903 17.02008c10.522736 10.897766 16.434326 25.678345 16.434326 41.09015l0 0c0 32.093384 -25.121399 58.11023 -56.11023 58.11023l0 0c-30.98883 0 -56.11026 -26.016846 -56.11026 -58.11023zm28.055145 0l0 0c0 16.598999 12.560699 30.055115 28.055115 30.055115c15.494415 0 28.055115 -13.456116 28.055115 -30.055115l0 0c0 -16.598999 -12.560699 -30.055115 -28.055115 -30.055115l0 0c-15.494415 0 -28.055115 13.456116 -28.055115 30.055115z" fill-rule="evenodd"/><path fill="#512729" d="m406.94498 643.3069l0.234375 1.453125q-0.6875 0.140625 -1.234375 0.140625q-0.890625 0 -1.390625 -0.28125q-0.484375 -0.28125 -0.6875 -0.734375q-0.203125 -0.46875 -0.203125 -1.9375l0 -5.578125l-1.203125 0l0 -1.265625l1.203125 0l0 -2.390625l1.625 -0.984375l0 3.375l1.65625 0l0 1.265625l-1.65625 0l0 5.671875q0 0.6875 0.078125 0.890625q0.09375 0.203125 0.28125 0.328125q0.203125 0.109375 0.578125 0.109375q0.265625 0 0.71875 -0.0625zm8.230164 -1.640625l1.6875 0.203125q-0.40625 1.484375 -1.484375 2.3125q-1.078125 0.8125 -2.765625 0.8125q-2.125 0 -3.375 -1.296875q-1.234375 -1.3125 -1.234375 -3.671875q0 -2.453125 1.25 -3.796875q1.265625 -1.34375 3.265625 -1.34375q1.9375 0 3.15625 1.328125q1.234375 1.3125 1.234375 3.703125q0 0.15625 0 0.4375l-7.21875 0q0.09375 1.59375 0.90625 2.453125q0.8125 0.84375 2.015625 0.84375q0.90625 0 1.546875 -0.46875q0.640625 -0.484375 1.015625 -1.515625zm-5.390625 -2.65625l5.40625 0q-0.109375 -1.21875 -0.625 -1.828125q-0.78125 -0.953125 -2.03125 -0.953125q-1.125 0 -1.90625 0.765625q-0.765625 0.75 -0.84375 2.015625zm8.485107 2.875l1.625 -0.25q0.125 0.96875 0.75 1.5q0.625 0.515625 1.75 0.515625q1.125 0 1.671875 -0.453125q0.546875 -0.46875 0.546875 -1.09375q0 -0.546875 -0.484375 -0.875q-0.328125 -0.21875 -1.671875 -0.546875q-1.8125 -0.46875 -2.515625 -0.796875q-0.6875 -0.328125 -1.046875 -0.90625q-0.359375 -0.59375 -0.359375 -1.3125q0 -0.640625 0.296875 -1.1875q0.296875 -0.5625 0.8125 -0.921875q0.375 -0.28125 1.03125 -0.46875q0.671875 -0.203125 1.421875 -0.203125q1.140625 0 2.0 0.328125q0.859375 0.328125 1.265625 0.890625q0.421875 0.5625 0.578125 1.5l-1.609375 0.21875q-0.109375 -0.75 -0.640625 -1.171875q-0.515625 -0.421875 -1.46875 -0.421875q-1.140625 0 -1.625 0.375q-0.46875 0.375 -0.46875 0.875q0 0.3125 0.1875 0.578125q0.203125 0.265625 0.640625 0.4375q0.234375 0.09375 1.4375 0.421875q1.75 0.453125 2.4375 0.75q0.6875 0.296875 1.078125 0.859375q0.390625 0.5625 0.390625 1.40625q0 0.828125 -0.484375 1.546875q-0.46875 0.71875 -1.375 1.125q-0.90625 0.390625 -2.046875 0.390625q-1.875 0 -2.875 -0.78125q-0.984375 -0.78125 -1.25 -2.328125zm13.5625 1.421875l0.234375 1.453125q-0.6875 0.140625 -1.234375 0.140625q-0.890625 0 -1.390625 -0.28125q-0.484375 -0.28125 -0.6875 -0.734375q-0.203125 -0.46875 -0.203125 -1.9375l0 -5.578125l-1.203125 0l0 -1.265625l1.203125 0l0 -2.390625l1.625 -0.984375l0 3.375l1.65625 0l0 1.265625l-1.65625 0l0 5.671875q0 0.6875 0.078125 0.890625q0.09375 0.203125 0.28125 0.328125q0.203125 0.109375 0.578125 0.109375q0.265625 0 0.71875 -0.0625zm1.6051636 -10.0l0 -1.890625l1.640625 0l0 1.890625l-1.640625 0zm0 11.46875l0 -9.671875l1.640625 0l0 9.671875l-1.640625 0zm4.1448364 0l0 -9.671875l1.46875 0l0 1.375q1.0625 -1.59375 3.078125 -1.59375q0.875 0 1.609375 0.3125q0.734375 0.3125 1.09375 0.828125q0.375 0.5 0.515625 1.203125q0.09375 0.453125 0.09375 1.59375l0 5.953125l-1.640625 0l0 -5.890625q0 -1.0 -0.203125 -1.484375q-0.1875 -0.5 -0.671875 -0.796875q-0.484375 -0.296875 -1.140625 -0.296875q-1.046875 0 -1.8125 0.671875q-0.75 0.65625 -0.75 2.515625l0 5.28125l-1.640625 0zm10.063202 0.796875l1.59375 0.234375q0.109375 0.75 0.5625 1.078125q0.609375 0.453125 1.671875 0.453125q1.140625 0 1.75 -0.453125q0.625 -0.453125 0.84375 -1.265625q0.125 -0.5 0.109375 -2.109375q-1.0625 1.265625 -2.671875 1.265625q-2.0 0 -3.09375 -1.4375q-1.09375 -1.4375 -1.09375 -3.453125q0 -1.390625 0.5 -2.5625q0.515625 -1.171875 1.453125 -1.796875q0.953125 -0.640625 2.25 -0.640625q1.703125 0 2.8125 1.375l0 -1.15625l1.515625 0l0 8.359375q0 2.265625 -0.46875 3.203125q-0.453125 0.9375 -1.453125 1.484375q-0.984375 0.546875 -2.453125 0.546875q-1.71875 0 -2.796875 -0.78125q-1.0625 -0.765625 -1.03125 -2.34375zm1.359375 -5.8125q0 1.90625 0.75 2.78125q0.765625 0.875 1.90625 0.875q1.125 0 1.890625 -0.859375q0.765625 -0.875 0.765625 -2.734375q0 -1.78125 -0.796875 -2.671875q-0.78125 -0.90625 -1.890625 -0.90625q-1.09375 0 -1.859375 0.890625q-0.765625 0.875 -0.765625 2.625z" fill-rule="nonzero"/><path fill="#b30fb7" d="m733.06824 191.49399l157.70197 -60.485l-7.7716064 -20.267723l56.077515 24.988945l-24.990906 56.081924l-7.7716675 -20.267715l-157.70203 60.485z" fill-rule="evenodd"/><path stroke="#000000" stroke-width="1.0" stroke-linejoin="round" stroke-linecap="butt" d="m733.06824 191.49399l157.70197 -60.485l-7.7716064 -20.267723l56.077515 24.988945l-24.990906 56.081924l-7.7716675 -20.267715l-157.70203 60.485z" fill-rule="evenodd"/><path fill="#ffffff" d="m794.7579 200.22858l-6.1536255 -16.048126l6.039734 -2.3164978q1.6047974 -0.6154785 2.5124512 -0.779541q1.2544556 -0.26356506 2.2548218 -0.0113220215q1.0149536 0.24664307 1.8823853 1.0686493q0.8764038 0.8018341 1.3295288 1.983551q0.78881836 2.0570831 0.018493652 3.9758148q-0.75579834 1.913147 -4.1549683 3.2168732l-4.1140137 1.5778961l2.5006104 6.5213776l-2.1154175 0.8113251zm-1.1124878 -9.229309l4.1432495 -1.5890808q2.0570068 -0.7889404 2.626831 -1.8777161q0.5788574 -1.1089478 0.04736328 -2.4949188q-0.38598633 -1.0066681 -1.1707153 -1.5256958q-0.784729 -0.5190277 -1.7058105 -0.43351746q-0.5957031 0.06112671 -2.039978 0.6150665l-4.0994873 1.5723114l2.1985474 5.733551zm22.834045 -0.7417755q-0.7416992 1.3387756 -1.6118774 2.1243591q-0.86120605 0.7653961 -2.0136719 1.2074432q-1.9111328 0.73298645 -3.3049927 0.19654846q-1.3792725 -0.54203796 -1.9386597 -2.000946q-0.33007812 -0.86076355 -0.21929932 -1.7065277q0.12536621 -0.85136414 0.5904541 -1.5150452q0.4595337 -0.6782837 1.1633911 -1.1992645q0.5275879 -0.36972046 1.638794 -0.9632416q2.2806396 -1.2094269 3.2529297 -2.0341797q-0.13647461 -0.39949036 -0.18121338 -0.51620483q-0.45874023 -1.1963196 -1.2178955 -1.4741364q-1.0013428 -0.3857422 -2.48938 0.1849823q-1.4005127 0.5371704 -1.8668213 1.2849884q-0.47192383 0.7332306 -0.31732178 2.0964203l-2.0264282 0.47598267q-0.21289062 -1.340805 0.09429932 -2.3288574q0.30725098 -0.9880371 1.2885742 -1.8329773q0.975647 -0.8595276 2.4783325 -1.435852q1.4880371 -0.5707245 2.5559692 -0.5786896q1.0679321 -0.007965088 1.7125854 0.3639679q0.6390991 0.35736084 1.1274414 1.1072083q0.27770996 0.46246338 0.78118896 1.7754822l1.006958 2.626068q1.0516968 2.7427673 1.4627075 3.421875q0.41101074 0.6790924 1.033081 1.2103119l-2.0570068 0.7889557q-0.5413208 -0.49523926 -0.9421387 -1.2786713zm-1.8499146 -4.344391q-0.91174316 0.85173035 -2.9388428 1.9806213q-1.1437378 0.63949585 -1.5704346 1.0541687q-0.41210938 0.40908813 -0.5270386 0.93847656q-0.1003418 0.5238037 0.09539795 1.0344391q0.30212402 0.7878113 1.0870361 1.0892029q0.79956055 0.29580688 1.9520874 -0.14622498q1.1378784 -0.43644714 1.8376465 -1.2737885q0.69970703 -0.83735657 0.7781372 -1.8547974q0.06359863 -0.79418945 -0.43432617 -2.092636l-0.2796631 -0.72946167zm5.1552124 0.73379517l1.8374634 -1.0561523q0.6079712 1.1055908 1.5925903 1.4475555q0.9991455 0.33638 2.3413086 -0.1783905q1.3567505 -0.5203705 1.8006592 -1.3265533q0.4439087 -0.80618286 0.15863037 -1.5502319q-0.25732422 -0.6710968 -0.9863281 -0.8266144q-0.4946289 -0.11152649 -2.27063 0.10105896q-2.3660889 0.28831482 -3.3632812 0.21894836q-0.9882202 -0.08956909 -1.694397 -0.621994q-0.6972046 -0.55259705 -1.0216675 -1.3987732q-0.2965088 -0.7732239 -0.19812012 -1.5640259q0.107421875 -0.8109894 0.5523071 -1.4836731q0.3236084 -0.50901794 1.0218506 -1.0445862q0.7073364 -0.5557709 1.6118164 -0.90267944q1.3713379 -0.52597046 2.5581665 -0.5293274q1.1868896 -0.0033721924 1.9312134 0.49768066q0.75335693 0.48086548 1.3737793 1.5314941l-1.8250122 1.0011902q-0.4781494 -0.85417175 -1.2956543 -1.1096039q-0.8231201 -0.27001953 -1.975647 0.17201233q-1.3567505 0.5203705 -1.7669067 1.1964569q-0.4100952 0.67607117 -0.1807251 1.274231q0.14544678 0.37931824 0.5109253 0.5905762q0.35650635 0.23143005 0.960022 0.23425293q0.33648682 0.0048065186 1.9318237 -0.15522766q2.298767 -0.2457428 3.2556152 -0.19436646q0.9658203 0.031204224 1.6956177 0.53785706q0.73876953 0.4864502 1.1247559 1.493103q0.3748169 0.977478 0.12689209 2.076645q-0.23327637 1.0935822 -1.1282349 1.9890747q-0.90057373 0.8809204 -2.2719116 1.4068756q-2.2612915 0.8672943 -3.8155518 0.39239502q-1.5453491 -0.4950714 -2.5913696 -2.2192078zm11.204224 -4.297241l1.8374023 -1.0561523q0.6080322 1.1055756 1.5925903 1.4475555q0.9991455 0.33638 2.3413086 -0.17840576q1.3567505 -0.5203705 1.8006592 -1.3265533q0.44396973 -0.8061676 0.15863037 -1.5502319q-0.25732422 -0.6710968 -0.9863281 -0.8265991q-0.49456787 -0.11152649 -2.2705688 0.10105896q-2.36615 0.28831482 -3.3633423 0.2189331q-0.9882202 -0.08955383 -1.694397 -0.62197876q-0.69714355 -0.5526123 -1.0216675 -1.3987885q-0.29644775 -0.7732239 -0.19805908 -1.5640259q0.10736084 -0.8109894 0.5522461 -1.4836731q0.3236084 -0.5090027 1.0219116 -1.0445862q0.7072754 -0.5557556 1.6117554 -0.90267944q1.3713379 -0.5259552 2.5582275 -0.5293274q1.1868286 -0.0033569336 1.9311523 0.49768066q0.75335693 0.48086548 1.3737793 1.5314941l-1.8250122 1.0012054q-0.4781494 -0.85417175 -1.2956543 -1.1096039q-0.8231201 -0.2700348 -1.975647 0.17201233q-1.3567505 0.5203705 -1.7668457 1.1964417q-0.41015625 0.6760864 -0.18078613 1.2742462q0.14544678 0.37931824 0.5109253 0.5905609q0.35650635 0.23144531 0.960022 0.23425293q0.33654785 0.0048065186 1.9318848 -0.15522766q2.298767 -0.2457428 3.2555542 -0.1943512q0.9658203 0.031204224 1.6956177 0.5378418q0.73876953 0.4864502 1.1247559 1.4931183q0.3748169 0.977478 0.12689209 2.076645q-0.23327637 1.0935669 -1.1282349 1.9890747q-0.90057373 0.88090515 -2.2719116 1.4068756q-2.2612305 0.86727905 -3.8155518 0.39239502q-1.5453491 -0.4950714 -2.5913086 -2.2192078zm8.057007 -14.9049835l-0.87268066 -2.2759247l1.9694824 -0.7553711l0.87268066 2.2759247l-1.9694824 0.7553711zm5.280945 13.772217l-4.458618 -11.627609l1.9694824 -0.7553711l4.458618 11.627609l-1.9694824 0.7553711zm2.0078735 -7.4305725q-1.2418823 -3.2388 -0.04046631 -5.47348q1.0047607 -1.8747711 3.1638794 -2.7028809q2.3925781 -0.9176483 4.513977 0.07606506q2.121399 0.9937134 3.178711 3.7510834q0.86151123 2.2467346 0.68273926 3.7879791q-0.17877197 1.5412292 -1.1884766 2.7485046q-1.0097046 1.2072601 -2.5269165 1.7891846q-2.4509277 0.9400177 -4.552185 -0.044708252q-2.1068115 -0.99931335 -3.2312622 -3.9317474zm2.027893 -0.77775574q0.855896 2.2321472 2.2438965 2.971634q1.4026489 0.733902 2.890686 0.16316223q1.4588623 -0.5595398 2.0111694 -2.0431976q0.5466919 -1.4982605 -0.331604 -3.7887726q-0.8279419 -2.1592102 -2.2451782 -2.887497q-1.4025879 -0.7338867 -2.8468628 -0.1799469q-1.4880981 0.5707245 -2.0403442 2.0543976q-0.5377197 1.4780731 0.3182373 3.7102203zm13.390564 1.524643l-4.458618 -11.627594l1.7797852 -0.68263245l0.63775635 1.6631622q0.54541016 -2.418167 2.9525146 -3.3414001q1.050415 -0.40286255 2.071167 -0.3592682q1.0354004 0.037994385 1.7080078 0.48287964q0.6726074 0.44488525 1.1721802 1.2239227q0.32366943 0.4950409 0.84954834 1.8664246l2.74115 7.148712l-1.9694824 0.7553711l-2.7131958 -7.07576q-0.45874023 -1.1963196 -0.9215088 -1.704956q-0.46276855 -0.5086365 -1.180603 -0.63494873q-0.7233887 -0.14091492 -1.5112305 0.16122437q-1.2546387 0.48120117 -1.8660278 1.6361237q-0.61138916 1.1549072 0.24450684 3.3870697l2.4334717 6.346298l-1.9694214 0.7553711z" fill-rule="nonzero"/><path fill="#000000" fill-opacity="0.0" d="m933.7297 506.27036l-515.5906 205.70078" fill-rule="evenodd"/><path stroke="#000000" stroke-width="1.0" stroke-linejoin="round" stroke-linecap="butt" d="m933.7297 506.27036l-515.5906 205.70078" fill-rule="evenodd"/><path fill="#000000" fill-opacity="0.0" d="m862.93176 520.9659l4.0 6.677185" fill-rule="evenodd"/><path stroke="#000000" stroke-width="1.0" stroke-linejoin="round" stroke-linecap="butt" d="m862.93176 520.9659l4.0 6.677185" fill-rule="evenodd"/><path fill="#eae62b" d="m37.442886 61.808025l0 0c-1.4321938 -8.836212 3.2699852 -17.583527 12.111225 -22.530136c8.84124 -4.9466057 20.270977 -5.224983 29.43916 -0.71699905l0 0c3.2476501 -5.1377373 9.191803 -8.684994 16.034454 -9.568789c6.842659 -0.8837948 13.7801285 0.99967766 18.713951 5.080702l0 0c2.7665863 -4.658207 8.198814 -7.7879257 14.369057 -8.27857c6.1702423 -0.49064445 12.205246 1.7272205 15.963486 5.866585l0 0c4.99823 -4.937685 12.950546 -7.016657 20.415924 -5.33733c7.465393 1.679327 13.102997 6.8153286 14.473389 13.185629l0 0c6.1236877 1.4023209 11.224579 4.9672165 13.984787 9.773624c2.7602081 4.806408 2.9089508 10.382832 0.4078064 15.288502l0 0c6.0300293 6.588852 7.440613 15.368423 3.7053223 23.062325c-3.7352753 7.6939087 -12.055252 13.146225 -21.855026 14.32225c-0.06907654 7.2210007 -4.7861786 13.846909 -12.333145 17.3238c-7.5469513 3.4768982 -16.745285 3.2618484 -24.049545 -0.56224823c-3.1112213 8.648399 -11.868286 15.011818 -22.487816 16.340996c-10.61953 1.3291931 -21.197762 -2.6141052 -27.164513 -10.1262665c-7.31398 3.702774 -16.090157 4.769409 -24.348785 2.9593353c-8.258636 -1.8100815 -15.304066 -6.3444214 -19.546978 -12.58017l0 0c-7.473976 0.7342758 -14.700275 -2.5166779 -18.092514 -8.139435c-3.3922386 -5.622757 -2.2282906 -12.420349 2.9141808 -17.019173l0 0c-6.666979 -3.2943726 -10.068872 -9.831505 -8.431728 -16.202538c1.6371441 -6.3710327 7.9423447 -11.132267 15.627686 -11.800907z" fill-rule="evenodd"/><path fill="#000000" fill-opacity="0.0" d="m30.099194 90.15203l0 0c3.1461678 1.5546265 6.7807274 2.2598343 10.415684 2.020958m4.761009 23.138214c1.5631638 -0.15357208 3.0953636 -0.47878265 4.557083 -0.9672394m39.336502 10.587662c-1.0994339 -1.3841782 -2.019928 -2.8633041 -2.7458115 -4.412155m52.40004 -1.8028336l0 0c0.5672302 -1.5767288 0.93473816 -3.1995316 1.096405 -4.841324m35.284897 -11.919624c0.07354736 -7.687866 -5.127533 -14.726967 -13.369217 -18.09378m31.518753 -19.289978c-1.3347168 2.6178665 -3.3722992 4.94014 -5.953003 6.7847366m-8.438339 -31.84755l0 0c0.22741699 1.0571518 0.33267212 2.1301956 0.31428528 3.2042542m-35.203003 -11.052233l0 0c-1.2468109 1.2317066 -2.2740173 2.6081257 -3.0496368 4.0863934m-27.283188 -1.6749458l0 0c-0.66444397 1.1187515 -1.1606064 2.302578 -1.4770584 3.5242195m-33.27186 0.96396255l0 0c1.9399796 0.9538841 3.734726 2.1019897 5.3448105 3.4190903m-46.89466 19.828167l0 0c0.19739532 1.2178574 0.509285 2.420704 0.93275833 3.597271" fill-rule="evenodd"/><path stroke="#000000" stroke-width="1.0" stroke-linejoin="round" stroke-linecap="butt" d="m37.442886 61.808025l0 0c-1.4321938 -8.836212 3.2699852 -17.583527 12.111225 -22.530136c8.84124 -4.9466057 20.270977 -5.224983 29.43916 -0.71699905l0 0c3.2476501 -5.1377373 9.191803 -8.684994 16.034454 -9.568789c6.842659 -0.8837948 13.7801285 0.99967766 18.713951 5.080702l0 0c2.7665863 -4.658207 8.198814 -7.7879257 14.369057 -8.27857c6.1702423 -0.49064445 12.205246 1.7272205 15.963486 5.866585l0 0c4.99823 -4.937685 12.950546 -7.016657 20.415924 -5.33733c7.465393 1.679327 13.102997 6.8153286 14.473389 13.185629l0 0c6.1236877 1.4023209 11.224579 4.9672165 13.984787 9.773624c2.7602081 4.806408 2.9089508 10.382832 0.4078064 15.288502l0 0c6.0300293 6.588852 7.440613 15.368423 3.7053223 23.062325c-3.7352753 7.6939087 -12.055252 13.146225 -21.855026 14.32225c-0.06907654 7.2210007 -4.7861786 13.846909 -12.333145 17.3238c-7.5469513 3.4768982 -16.745285 3.2618484 -24.049545 -0.56224823c-3.1112213 8.648399 -11.868286 15.011818 -22.487816 16.340996c-10.61953 1.3291931 -21.197762 -2.6141052 -27.164513 -10.1262665c-7.31398 3.702774 -16.090157 4.769409 -24.348785 2.9593353c-8.258636 -1.8100815 -15.304066 -6.3444214 -19.546978 -12.58017l0 0c-7.473976 0.7342758 -14.700275 -2.5166779 -18.092514 -8.139435c-3.3922386 -5.622757 -2.2282906 -12.420349 2.9141808 -17.019173l0 0c-6.666979 -3.2943726 -10.068872 -9.831505 -8.431728 -16.202538c1.6371441 -6.3710327 7.9423447 -11.132267 15.627686 -11.800907z" fill-rule="evenodd"/><path stroke="#000000" stroke-width="1.0" stroke-linejoin="round" stroke-linecap="butt" d="m30.099194 90.15203l0 0c3.1461678 1.5546265 6.7807274 2.2598343 10.415684 2.020958m4.761009 23.138214c1.5631638 -0.15357208 3.0953636 -0.47878265 4.557083 -0.9672394m39.336502 10.587662c-1.0994339 -1.3841782 -2.019928 -2.8633041 -2.7458115 -4.412155m52.40004 -1.8028336l0 0c0.5672302 -1.5767288 0.93473816 -3.1995316 1.096405 -4.841324m35.284897 -11.919624c0.07354736 -7.687866 -5.127533 -14.726967 -13.369217 -18.09378m31.518753 -19.289978c-1.3347168 2.6178665 -3.3722992 4.94014 -5.953003 6.7847366m-8.438339 -31.84755l0 0c0.22741699 1.0571518 0.33267212 2.1301956 0.31428528 3.2042542m-35.203003 -11.052233l0 0c-1.2468109 1.2317066 -2.2740173 2.6081257 -3.0496368 4.0863934m-27.283188 -1.6749458l0 0c-0.66444397 1.1187515 -1.1606064 2.302578 -1.4770584 3.5242195m-33.27186 0.96396255l0 0c1.9399796 0.9538841 3.734726 2.1019897 5.3448105 3.4190903m-46.89466 19.828167l0 0c0.19739532 1.2178574 0.509285 2.420704 0.93275833 3.597271" fill-rule="evenodd"/><path fill="#000000" d="m99.67393 79.2885l0 -1.578125l5.65625 0l0 4.953125q-1.296875 1.046875 -2.6875 1.578125q-1.375 0.515625 -2.84375 0.515625q-1.96875 0 -3.578125 -0.84375q-1.609375 -0.84375 -2.421875 -2.4375q-0.8125 -1.59375 -0.8125 -3.5625q0 -1.953125 0.8125 -3.640625q0.8125 -1.6875 2.34375 -2.5q1.53125 -0.828125 3.515625 -0.828125q1.453125 0 2.625 0.46875q1.171875 0.46875 1.828125 1.3125q0.671875 0.828125 1.015625 2.171875l-1.59375 0.4375q-0.296875 -1.015625 -0.75 -1.59375q-0.4375 -0.59375 -1.265625 -0.9375q-0.828125 -0.34375 -1.84375 -0.34375q-1.203125 0 -2.09375 0.375q-0.890625 0.359375 -1.4375 0.96875q-0.53125 0.59375 -0.828125 1.3125q-0.515625 1.234375 -0.515625 2.6875q0 1.78125 0.609375 2.984375q0.625 1.203125 1.796875 1.796875q1.171875 0.578125 2.5 0.578125q1.140625 0 2.234375 -0.4375q1.09375 -0.453125 1.65625 -0.953125l0 -2.484375l-3.921875 0zm8.058304 -6.234375l0 -1.890625l1.640625 0l0 1.890625l-1.640625 0zm0 11.46875l0 -9.671875l1.640625 0l0 9.671875l-1.640625 0zm7.722946 -1.46875l0.234375 1.453125q-0.6875 0.140625 -1.234375 0.140625q-0.890625 0 -1.390625 -0.28125q-0.484375 -0.28125 -0.6875 -0.734375q-0.203125 -0.46875 -0.203125 -1.9375l0 -5.578125l-1.203125 0l0 -1.265625l1.203125 0l0 -2.390625l1.625 -0.984375l0 3.375l1.65625 0l0 1.265625l-1.65625 0l0 5.671875q0 0.6875 0.078125 0.890625q0.09375 0.203125 0.28125 0.328125q0.203125 0.109375 0.578125 0.109375q0.265625 0 0.71875 -0.0625z" fill-rule="nonzero"/><path fill="#eae62b" d="m239.29034 25.351852l0 0c-0.85095215 -3.5560684 1.9428711 -7.0763626 7.195923 -9.067089c5.2530365 -1.9907274 12.044067 -2.1027575 17.491364 -0.28855133l0 0c1.929596 -2.067647 5.461334 -3.4952145 9.5269165 -3.850891c4.0655823 -0.35567665 8.1875 0.40231323 11.1189575 2.044692l0 0c1.6437683 -1.8746614 4.871338 -3.1341944 8.537415 -3.3316507c3.6660461 -0.19745731 7.25177 0.69510746 9.484741 2.3609648l0 0c2.9697266 -1.9871359 7.6946106 -2.823803 12.130188 -2.1479702c4.4355774 0.67583275 7.785187 2.7427797 8.599396 5.3064604l0 0c3.6383972 0.56435585 6.6691284 1.9990215 8.309113 3.9333248c1.6399841 1.9343052 1.728363 4.1784973 0.24227905 6.15275l0 0c3.5827637 2.6516361 4.420868 6.1849117 2.201538 9.281267c-2.2193298 3.0963554 -7.1626587 5.2906 -12.9852295 5.7638855c-0.041046143 2.9060402 -2.8437195 5.572586 -7.327759 6.97184c-4.4840393 1.39925 -9.94928 1.312706 -14.289124 -0.2262764c-1.8485413 3.4804878 -7.0515747 6.041397 -13.361206 6.5763206c-6.309601 0.53492355 -12.594696 -1.0520325 -16.139862 -4.075245c-4.3456116 1.4901505 -9.560028 1.9194145 -14.466904 1.1909637c-4.906891 -0.7284546 -9.092957 -2.5532684 -11.613892 -5.0627975l0 0c-4.440689 0.2955017 -8.734222 -1.0128212 -10.749725 -3.2756615c-2.015503 -2.2628365 -1.3239441 -4.998478 1.7314758 -6.849243l0 0c-3.9612122 -1.3257942 -5.9824524 -3.9566193 -5.0097504 -6.5205936c0.9727173 -2.5639763 4.718979 -4.4801006 9.285248 -4.7491894z" fill-rule="evenodd"/><path fill="#000000" fill-opacity="0.0" d="m234.92706 36.758694l0 0c1.8693085 0.6256485 4.0287933 0.90945816 6.188507 0.81332016m2.8287659 9.31181c0.9287567 -0.061805725 1.8391266 -0.19268417 2.707611 -0.38925934m23.371887 4.260929c-0.65322876 -0.5570526 -1.2001343 -1.152317 -1.6314087 -1.7756424m31.133636 -0.72553635l0 0c0.33700562 -0.6345444 0.5553589 -1.2876282 0.6514282 -1.9483528m20.96463 -4.7969666c0.043670654 -3.0939293 -3.0465698 -5.9267654 -7.9433594 -7.2817154m18.72696 -7.763111c-0.7930298 1.0535412 -2.003662 1.9881229 -3.5370178 2.7304668m-5.0136414 -12.816816l0 0c0.13510132 0.42544365 0.19763184 0.85728073 0.18673706 1.2895279m-20.915985 -4.447891l0 0c-0.7407837 0.49569225 -1.3511047 1.0496216 -1.8119507 1.6445398m-16.210388 -0.67407036l0 0c-0.3947754 0.45023346 -0.6895752 0.9266567 -0.877594 1.4182968m-19.768585 0.38793945l0 0c1.1526489 0.38388538 2.2190247 0.84593105 3.1756592 1.375989m-27.86261 7.979702l0 0c0.11727905 0.49011993 0.30259705 0.9741955 0.5541992 1.4476986" fill-rule="evenodd"/><path stroke="#000000" stroke-width="1.0" stroke-linejoin="round" stroke-linecap="butt" d="m239.29034 25.351852l0 0c-0.85095215 -3.5560684 1.9428711 -7.0763626 7.195923 -9.067089c5.2530365 -1.9907274 12.044067 -2.1027575 17.491364 -0.28855133l0 0c1.929596 -2.067647 5.461334 -3.4952145 9.5269165 -3.850891c4.0655823 -0.35567665 8.1875 0.40231323 11.1189575 2.044692l0 0c1.6437683 -1.8746614 4.871338 -3.1341944 8.537415 -3.3316507c3.6660461 -0.19745731 7.25177 0.69510746 9.484741 2.3609648l0 0c2.9697266 -1.9871359 7.6946106 -2.823803 12.130188 -2.1479702c4.4355774 0.67583275 7.785187 2.7427797 8.599396 5.3064604l0 0c3.6383972 0.56435585 6.6691284 1.9990215 8.309113 3.9333248c1.6399841 1.9343052 1.728363 4.1784973 0.24227905 6.15275l0 0c3.5827637 2.6516361 4.420868 6.1849117 2.201538 9.281267c-2.2193298 3.0963554 -7.1626587 5.2906 -12.9852295 5.7638855c-0.041046143 2.9060402 -2.8437195 5.572586 -7.327759 6.97184c-4.4840393 1.39925 -9.94928 1.312706 -14.289124 -0.2262764c-1.8485413 3.4804878 -7.0515747 6.041397 -13.361206 6.5763206c-6.309601 0.53492355 -12.594696 -1.0520325 -16.139862 -4.075245c-4.3456116 1.4901505 -9.560028 1.9194145 -14.466904 1.1909637c-4.906891 -0.7284546 -9.092957 -2.5532684 -11.613892 -5.0627975l0 0c-4.440689 0.2955017 -8.734222 -1.0128212 -10.749725 -3.2756615c-2.015503 -2.2628365 -1.3239441 -4.998478 1.7314758 -6.849243l0 0c-3.9612122 -1.3257942 -5.9824524 -3.9566193 -5.0097504 -6.5205936c0.9727173 -2.5639763 4.718979 -4.4801006 9.285248 -4.7491894z" fill-rule="evenodd"/><path stroke="#000000" stroke-width="1.0" stroke-linejoin="round" stroke-linecap="butt" d="m234.92706 36.758694l0 0c1.8693085 0.6256485 4.0287933 0.90945816 6.188507 0.81332016m2.8287659 9.31181c0.9287567 -0.061805725 1.8391266 -0.19268417 2.707611 -0.38925934m23.371887 4.260929c-0.65322876 -0.5570526 -1.2001343 -1.152317 -1.6314087 -1.7756424m31.133636 -0.72553635l0 0c0.33700562 -0.6345444 0.5553589 -1.2876282 0.6514282 -1.9483528m20.96463 -4.7969666c0.043670654 -3.0939293 -3.0465698 -5.9267654 -7.9433594 -7.2817154m18.72696 -7.763111c-0.7930298 1.0535412 -2.003662 1.9881229 -3.5370178 2.7304668m-5.0136414 -12.816816l0 0c0.13510132 0.42544365 0.19763184 0.85728073 0.18673706 1.2895279m-20.915985 -4.447891l0 0c-0.7407837 0.49569225 -1.3511047 1.0496216 -1.8119507 1.6445398m-16.210388 -0.67407036l0 0c-0.3947754 0.45023346 -0.6895752 0.9266567 -0.877594 1.4182968m-19.768585 0.38793945l0 0c1.1526489 0.38388538 2.2190247 0.84593105 3.1756592 1.375989m-27.86261 7.979702l0 0c0.11727905 0.49011993 0.30259705 0.9741955 0.5541992 1.4476986" fill-rule="evenodd"/><path fill="#000000" d="m267.4335 35.737747l1.625 -0.25q0.125 0.96875 0.75 1.5q0.625 0.515625 1.75 0.515625q1.125 0 1.671875 -0.453125q0.546875 -0.46875 0.546875 -1.09375q0 -0.546875 -0.484375 -0.875q-0.328125 -0.21875 -1.671875 -0.546875q-1.8125 -0.46875 -2.515625 -0.796875q-0.6875 -0.328125 -1.046875 -0.90625q-0.359375 -0.59375 -0.359375 -1.3124981q0 -0.640625 0.296875 -1.1875q0.296875 -0.5625 0.8125 -0.921875q0.375 -0.28125 1.03125 -0.46875q0.671875 -0.203125 1.421875 -0.203125q1.140625 0 2.0 0.328125q0.859375 0.328125 1.265625 0.890625q0.421875 0.5625 0.578125 1.5l-1.609375 0.21875q-0.109375 -0.75 -0.640625 -1.171875q-0.515625 -0.421875 -1.46875 -0.421875q-1.140625 0 -1.625 0.375q-0.46875 0.375 -0.46875 0.875q0 0.3125 0.1875 0.578125q0.203125 0.2656231 0.640625 0.4374981q0.234375 0.09375 1.4375 0.421875q1.75 0.453125 2.4375 0.75q0.6875 0.296875 1.078125 0.859375q0.390625 0.5625 0.390625 1.40625q0 0.828125 -0.484375 1.546875q-0.46875 0.71875 -1.375 1.125q-0.90625 0.390625 -2.046875 0.390625q-1.875 0 -2.875 -0.78125q-0.984375 -0.78125 -1.25 -2.328125zm16.140625 6.59375l0 -4.734375q-0.375 0.546875 -1.0625 0.90625q-0.6875 0.34375 -1.46875 0.34375q-1.71875 0 -2.96875 -1.375q-1.234375 -1.375 -1.234375 -3.765625q0 -1.46875 0.5 -2.624998q0.515625 -1.15625 1.46875 -1.75q0.96875 -0.59375 2.109375 -0.59375q1.796875 0 2.828125 1.515625l0 -1.296875l1.46875 0l0 13.374998l-1.640625 0zm-5.046875 -8.5625q0 1.859375 0.78125 2.796875q0.78125 0.9375 1.875 0.9375q1.046875 0 1.796875 -0.890625q0.765625 -0.890625 0.765625 -2.703125q0 -1.9374981 -0.796875 -2.906248q-0.796875 -0.96875 -1.875 -0.96875q-1.0625 0 -1.8125 0.90625q-0.734375 0.90625 -0.734375 2.828123zm9.219482 4.859375l0 -13.359373l1.640625 0l0 13.359373l-1.640625 0z" fill-rule="nonzero"/><path fill="#ea2b33" d="m287.7138 488.14224l11.102356 -185.32285l159.38583 95.24411z" fill-rule="evenodd"/><path stroke="#000000" stroke-width="1.0" stroke-linejoin="round" stroke-linecap="butt" d="m287.7138 488.14224l11.102356 -185.32285l159.38583 95.24411z" fill-rule="evenodd"/><path fill="#ffffff" d="m320.5952 424.55405l-8.045776 -15.223358l1.6992798 -0.89782715l0.75930786 1.436676q0.1625061 -1.1638489 0.68948364 -1.9724426q0.5335083 -0.8297119 1.6111145 -1.3990479q1.4091492 -0.74453735 2.8736877 -0.5817261q1.4572449 0.14898682 2.7107544 1.183197q1.2535095 1.0341797 2.0858154 2.6090088q0.8907471 1.6853638 0.99835205 3.360321q0.1076355 1.6749878 -0.67318726 3.0064697q-0.7669983 1.3241882 -2.0379944 1.995758q-0.9394226 0.4963379 -1.8898926 0.5036926q-0.9439392 -0.01373291 -1.7487183 -0.36608887l2.8328247 5.359955l-1.8650513 0.9854126zm-3.4041748 -10.554016q1.1243591 2.127411 2.5211792 2.6970825q1.3895264 0.5559082 2.6190796 -0.09375q1.2433777 -0.6569519 1.5726624 -2.1739807q0.32928467 -1.5170593 -0.8388672 -3.727356q-1.1097717 -2.099762 -2.5350037 -2.6897888q-1.411438 -0.59732056 -2.6133423 0.037719727q-1.2019348 0.6350403 -1.5223389 2.2357483q-0.32772827 1.5869141 0.79663086 3.714325zm15.137512 4.3899536l-1.1344604 -1.644928q0.70928955 -0.16268921 1.1651917 -0.40356445q0.6217041 -0.3284912 0.8851929 -0.7327881q0.26348877 -0.40429688 0.301239 -0.9013672q0.033569336 -0.3711853 -0.16369629 -1.6806946q-0.032348633 -0.1949768 -0.075164795 -0.54345703l-10.005707 -8.833252l2.0032043 -1.0584106l5.666382 5.170532q1.077301 0.9682617 2.1446838 2.1184692q-0.36123657 -1.4526062 -0.5616455 -2.9018555l-1.0325928 -7.6718445l1.8650513 -0.9854126l1.7351379 13.4151q0.2795105 2.1673584 0.2642517 3.0413513q-0.008178711 1.188324 -0.43115234 1.9596252q-0.4091797 0.7640381 -1.3071594 1.2384949q-0.53878784 0.28466797 -1.3187561 0.41400146zm11.643616 -13.715546l1.1451111 1.4979248q-0.6925354 0.5956421 -1.3142395 0.9241028q-1.0223083 0.54016113 -1.7566528 0.521698q-0.72784424 -0.03955078 -1.2401428 -0.44039917q-0.49847412 -0.4081726 -1.381897 -2.079712l-3.3511963 -6.3407593l-1.3677063 0.72262573l-0.76660156 -1.4505005l1.3677063 -0.72262573l-1.438324 -2.721405l1.2598572 -2.0970764l2.0296936 3.8403625l1.8788757 -0.9927063l0.76660156 1.4505005l-1.8788757 0.9927063l3.4023132 6.4374695q0.4234619 0.801239 0.6442871 0.98498535q0.22732544 0.16262817 0.5213928 0.18399048q0.28674316 0.007537842 0.7012024 -0.2114563q0.30392456 -0.1605835 0.778595 -0.49972534zm2.7035828 0.70983887l-8.031158 -15.19574l1.8650513 -0.9854126l2.8839111 5.4566345q0.5093384 -2.2130127 2.4987183 -3.2640991q1.2157288 -0.6423645 2.3692627 -0.6333008q1.1673279 0.001739502 2.006836 0.6538391q0.83218384 0.63827515 1.6864014 2.2545776l3.6870422 6.976227l-1.8650513 0.9854126l-3.6870422 -6.976227q-0.73739624 -1.3952637 -1.6811218 -1.7095337q-0.9437256 -0.31430054 -2.0489197 0.26965332q-0.82891846 0.43795776 -1.3348083 1.2530823q-0.5058594 0.815094 -0.4366455 1.7151489q0.08300781 0.8927307 0.7693176 2.1912842l3.183258 6.023041l-1.8650513 0.9854126zm8.205048 -11.368622q-1.6208191 -3.0667725 -0.6954651 -5.428894q0.77316284 -1.9813232 2.81781 -3.061615q2.265686 -1.197113 4.4909973 -0.46429443q2.2252808 0.7328186 3.605194 3.3437195q1.1243591 2.127411 1.1313477 3.678833q0.0069885254 1.5514221 -0.85098267 2.8706665q-0.8580017 1.3192444 -2.2947693 2.0783997q-2.3209534 1.2262878 -4.5251465 0.49996948q-2.2114868 -0.7401123 -3.6789856 -3.5167847zm1.9203186 -1.0145874q1.1170654 2.1135864 2.5837402 2.6817017q1.4804993 0.56082153 2.8896484 -0.18371582q1.3815308 -0.72991943 1.7522583 -2.2688599q0.36343384 -1.5527649 -0.7828369 -3.7216187q-1.0805359 -2.0445251 -2.5748596 -2.598053q-1.4804993 -0.56082153 -2.8482056 0.1618042q-1.4091492 0.74453735 -1.7798767 2.2834778q-0.3569336 1.5316467 0.76013184 3.6452637zm13.477905 -0.087768555l-5.818939 -11.01001l1.6854553 -0.8905029l0.8323059 1.5748291q0.25201416 -2.4658508 2.5315247 -3.670227q0.99468994 -0.52557373 2.0134277 -0.6043396q1.0325623 -0.08609009 1.7536621 0.27511597q0.72109985 0.36120605 1.3103333 1.0748596q0.38067627 0.45272827 1.0669556 1.7512817l3.5775146 6.7690125l-1.8650513 0.9854126l-3.5410156 -6.699951q-0.59866333 -1.1327515 -1.1190491 -1.582367q-0.52038574 -0.44958496 -1.24823 -0.48916626q-0.73513794 -0.053375244 -1.4811707 0.3407898q-1.1881104 0.6277466 -1.6568909 1.8473816q-0.46881104 1.2196655 0.6482544 3.333252l3.1759644 6.0092163l-1.8650513 0.9854126z" fill-rule="nonzero"/><path fill="#eae62b" d="m657.9055 227.63799c5.7703247 -71.28346 126.58331 -40.318893 25.795288 81.07088c-152.37866 -40.751984 -71.69165 -135.89764 -25.795288 -81.07088z" fill-rule="evenodd"/><path stroke="#000000" stroke-width="1.0" stroke-linejoin="round" stroke-linecap="butt" d="m657.9055 227.63799c5.7703247 -71.28346 126.58331 -40.318893 25.795288 81.07088c-152.37866 -40.751984 -71.69165 -135.89764 -25.795288 -81.07088z" fill-rule="evenodd"/><path fill="#000000" d="m636.70386 268.1558l-5.2113647 -16.378418l7.2504883 -2.3094025q2.1885376 -0.6970825 3.4621582 -0.61079407q1.2885132 0.08154297 2.3286743 0.9801178q1.0401611 0.8985748 1.4665527 2.2386322q0.55426025 1.7420654 -0.19348145 3.3085022q-0.7524414 1.5515442 -3.0005493 2.6283875q0.9914551 0.12695312 1.565979 0.38671875q1.2323608 0.5749817 2.4978638 1.6149597l4.260132 3.5462036l-2.7244873 0.86779785l-3.258545 -2.7173462q-1.4069824 -1.175293 -2.2786255 -1.7503662q-0.86151123 -0.59472656 -1.4522705 -0.7509155q-0.57592773 -0.1609497 -1.1199951 -0.11880493q-0.39593506 0.0440979 -1.2296143 0.30966187l-2.5161133 0.8013916l2.3119507 7.2660522l-2.1587524 0.6876221zm-0.7501221 -9.829742l4.659973 -1.4842834q1.4887695 -0.47418213 2.2230225 -1.0524292q0.7342529 -0.5782318 0.9528198 -1.385788q0.23345947 -0.8122864 -0.022399902 -1.6163177q-0.36950684 -1.161377 -1.4550171 -1.6355438q-1.0706177 -0.4789276 -2.9018555 0.10435486l-5.1810303 1.650238l1.7244873 5.4197693zm23.878174 -1.7513428l2.1547241 -0.3911438q0.08666992 1.972992 -0.91619873 3.4075317q-1.0076294 1.4196472 -3.0770264 2.0787964q-2.6054077 0.8298645 -4.645813 -0.27487183q-2.0302124 -1.1243896 -2.9540405 -4.027832q-0.9522705 -2.9927826 0.05529785 -5.1339417q1.022522 -2.1459045 3.479065 -2.9283447q2.38208 -0.7587433 4.4021606 0.3852539q2.0349731 1.139267 2.9682617 4.0724945q0.05682373 0.17866516 0.15563965 0.5407562l-8.843445 2.816803q0.7247925 1.9173279 2.053955 2.6418762q1.3291016 0.72454834 2.8179321 0.2503357q1.1016846 -0.35092163 1.6911011 -1.1781921q0.6043091 -0.83203125 0.65838623 -2.2595215zm-7.6430664 -1.1404266l6.625183 -2.1102295q-0.60772705 -1.4462585 -1.4746704 -2.0064545q-1.3223267 -0.8578949 -2.855835 -0.36946106q-1.3845825 0.44102478 -2.0389404 1.6825562q-0.6442261 1.2218933 -0.2557373 2.8035889zm20.727356 -0.41978455q-0.81811523 1.2937012 -1.7323608 2.027649q-0.90411377 0.71432495 -2.0802612 1.0889587q-1.9503174 0.6212158 -3.310608 0.0049743652q-1.3453369 -0.6209717 -1.8190918 -2.1099243q-0.27954102 -0.878479 -0.11987305 -1.7164764q0.17462158 -0.84272766 0.67736816 -1.4784241q0.4981079 -0.65060425 1.230957 -1.1300049q0.54815674 -0.33857727 1.6918335 -0.8668518q2.3468628 -1.0754852 3.3653564 -1.8426361q-0.11303711 -0.4067688 -0.15093994 -0.5258789q-0.38848877 -1.220932 -1.130188 -1.5422363q-0.9772339 -0.44306946 -2.4957886 0.040618896q-1.4292603 0.45524597 -1.9381104 1.174881q-0.5136719 0.70474243 -0.43847656 2.0746765l-2.050537 0.35794067q-0.13470459 -1.3509521 0.22937012 -2.319641q0.3640747 -0.9686737 1.3927002 -1.7554626q1.0238647 -0.8016815 2.557312 -1.2901154q1.5185547 -0.48368835 2.585144 -0.4298401q1.0665283 0.053863525 1.6884155 0.46250916q0.6171875 0.39375305 1.0611572 1.1706696q0.25042725 0.4777832 0.67681885 1.8178406l0.85272217 2.6800995q0.89068604 2.7992249 1.2615356 3.501007q0.37091064 0.7017975 0.96099854 1.268158l-2.0991821 0.6686249q-0.5116577 -0.52575684 -0.866272 -1.3311157zm-1.5944824 -4.444458q-0.9595947 0.79759216 -3.048645 1.8073578q-1.178894 0.5722656 -1.6289062 0.9615936q-0.43511963 0.38456726 -0.5805664 0.9064636q-0.13061523 0.5171509 0.035217285 1.0382843q0.25579834 0.8040314 1.0218506 1.1503754q0.78100586 0.34158325 1.9571533 -0.033050537q1.1612549 -0.36987305 1.9083252 -1.1653748q0.74713135 -0.79551697 0.88446045 -1.806778q0.10961914 -0.78923035 -0.31201172 -2.1143951l-0.23687744 -0.7444763zm13.393494 -2.4950256l2.060669 -0.37757874q0.3262329 2.1590729 -0.64416504 3.7472382q-0.9602661 1.5685425 -2.9105835 2.1897583q-2.4267578 0.7729492 -4.4224854 -0.3460083q-1.980835 -1.123703 -2.923584 -4.0867157q-0.611145 -1.9207458 -0.43048096 -3.568924q0.18060303 -1.6481934 1.2484741 -2.7754517q1.0631104 -1.1421356 2.5965576 -1.6305695q1.9354858 -0.61647034 3.4689941 -0.022628784q1.5483398 0.5891113 2.4592896 2.2667847l-1.8508301 0.9338989q-0.666626 -1.1159515 -1.5707397 -1.4839172q-0.89398193 -0.3875885 -1.9063721 -0.06512451q-1.5185547 0.48368835 -2.1208496 1.8890076q-0.59210205 1.3856812 0.1564331 3.7382202q0.7579956 2.382309 2.012024 3.1799774q1.2689209 0.792923 2.7427979 0.3234558q1.1761475 -0.37461853 1.7330933 -1.355545q0.5718384 -0.98565674 0.3017578 -2.5558777zm8.894348 -0.02885437l0.86151123 1.677002q-0.78704834 0.4638672 -1.4569702 0.67726135q-1.1017456 0.35092163 -1.821106 0.20288086q-0.7092285 -0.16766357 -1.142334 -0.6528473q-0.41827393 -0.4899292 -0.9915161 -2.2915497l-2.1744995 -6.8342743l-1.473938 0.46946716l-0.49743652 -1.563385l1.473877 -0.46946716l-0.9332886 -2.9332275l1.6112671 -1.8414917l1.3170166 4.139282l2.0247803 -0.644928l0.49743652 1.5634003l-2.0247192 0.6449127l2.2077026 6.938492q0.27478027 0.8635864 0.4595337 1.0835266q0.19488525 0.20028687 0.48046875 0.27331543q0.28082275 0.058120728 0.727478 -0.08413696q0.32751465 -0.10432434 0.8547363 -0.3542328z" fill-rule="nonzero"/><path fill="#b30fb7" d="m442.93436 460.25275l94.4252 -131.87402l160.09448 26.015747l-94.42517 131.87402z" fill-rule="evenodd"/><path stroke="#000000" stroke-width="1.0" stroke-linejoin="round" stroke-linecap="butt" d="m442.93436 460.25275l94.4252 -131.87402l160.09448 26.015747l-94.42517 131.87402z" fill-rule="evenodd"/><path fill="#ffffff" d="m513.714 419.0797l1.7963867 -1.0517273q0.82818604 1.7877808 1.7161255 2.2138367q0.881958 0.4116211 1.9495239 -0.032409668q0.79351807 -0.3300171 1.2061157 -0.92471313q0.427063 -0.6006775 0.38549805 -1.3110352q-0.047607422 -0.7247925 -0.61169434 -2.0809326l-4.548279 -10.935577l2.1063232 -0.8760681l4.500305 10.82019q0.82806396 1.9909058 0.7935791 3.2913818q-0.026062012 1.2800293 -0.8392334 2.295105q-0.79870605 1.0091248 -2.19812 1.591156q-2.091919 0.87005615 -3.7008057 0.13464355q-1.6149292 -0.7498474 -2.555725 -3.13385zm20.688354 -4.983124q-0.7040405 1.3589172 -1.5518799 2.1684875q-0.83947754 0.78912354 -1.979187 1.2631531q-1.8898926 0.78604126 -3.2982788 0.2887268q-1.3939209 -0.5032959 -1.9939575 -1.9459839q-0.3540039 -0.8511658 -0.26690674 -1.6996765q0.101501465 -0.8544922 0.54785156 -1.5309143q0.44030762 -0.6907959 1.1293945 -1.2312317q0.5170288 -0.38427734 1.611206 -1.0085754q2.2460327 -1.2726135 3.1948853 -2.1241455q-0.14758301 -0.39553833 -0.19561768 -0.5109558q-0.4920044 -1.1830139 -1.258667 -1.4395142q-1.0117798 -0.35760498 -2.4833374 0.25442505q-1.3850098 0.5760193 -1.8302002 1.3365784q-0.45117188 0.74609375 -0.25854492 2.1044006l-2.0123901 0.53234863q-0.25030518 -1.3342896 0.029174805 -2.3305054q0.27947998 -0.9962158 1.2367554 -1.8681946q0.95129395 -0.8864136 2.4372559 -1.5044556q1.4715576 -0.61203 2.5388794 -0.6498108q1.0673218 -0.03778076 1.722168 0.31600952q0.6488037 0.33935547 1.157959 1.0752563q0.29058838 0.4545288 0.83062744 1.7529297l1.0800781 2.5968628q1.1280518 2.7122498 1.5579224 3.3795776q0.4298706 0.6673584 1.0665283 1.1809692l-2.0341797 0.84606934q-0.5549927 -0.47991943 -0.97753906 -1.251831zm-1.9708252 -4.290924q-0.88757324 0.87683105 -2.8823242 2.0618591q-1.1254272 0.6711426 -1.5404053 1.0975647q-0.4005127 0.42041016 -0.50061035 0.9527893q-0.085632324 0.5263977 0.12438965 1.0313416q0.3239746 0.77905273 1.1170654 1.0584106q0.80755615 0.27334595 1.9472656 -0.2006836q1.1253052 -0.46801758 1.8013306 -1.3245544q0.6760254 -0.85653687 0.72595215 -1.8757324q0.041381836 -0.7956543 -0.49267578 -2.0796509l-0.2999878 -0.721344zm10.583801 2.3670654l-9.153687 -9.680145l2.048645 -0.8520508l5.3292236 5.855591q0.87194824 0.9572754 1.7018433 2.016693q-0.11834717 -1.0169067 -0.19073486 -2.4928894l-0.3626709 -8.073547l2.005371 -0.8340454l0.43981934 13.304352l-1.81781 0.7560425zm14.791077 -7.810211q-0.7039795 1.3589172 -1.5518799 2.168457q-0.8394165 0.78912354 -1.979126 1.2631531q-1.8899536 0.78604126 -3.2982788 0.28875732q-1.3939209 -0.5032959 -1.9939575 -1.9459839q-0.3540039 -0.8511963 -0.26696777 -1.699707q0.101501465 -0.8544922 0.54785156 -1.5308838q0.44036865 -0.6908264 1.1293945 -1.2312622q0.51708984 -0.38427734 1.6112671 -1.0085754q2.2459717 -1.272583 3.1948242 -2.1241455q-0.14758301 -0.39553833 -0.19555664 -0.5109253q-0.49206543 -1.1830139 -1.258728 -1.4395142q-1.0117798 -0.3576355 -2.4833374 0.25442505q-1.3849487 0.5760193 -1.8301392 1.3365479q-0.4512329 0.74609375 -0.25860596 2.1044006l-2.012329 0.53237915q-0.2503662 -1.3343201 0.02911377 -2.330536q0.27947998 -0.9961853 1.2367554 -1.8681946q0.95129395 -0.88638306 2.4372559 -1.504425q1.4715576 -0.61203 2.5389404 -0.6498108q1.0673218 -0.03778076 1.7221069 0.31600952q0.64886475 0.33935547 1.15802 1.0752563q0.29052734 0.4544983 0.8305664 1.7529297l1.0800781 2.5968323q1.1281128 2.7122498 1.5579834 3.3796082q0.42980957 0.6673279 1.0665283 1.1809692l-2.0341797 0.8460388q-0.5549927 -0.47991943 -0.9776001 -1.2518005zm-1.9708252 -4.290924q-0.88757324 0.87683105 -2.8823242 2.0618286q-1.1254272 0.6711731 -1.5403442 1.0975952q-0.4005127 0.42041016 -0.50061035 0.9527893q-0.08569336 0.5263977 0.12432861 1.0313416q0.32403564 0.77905273 1.1171265 1.0583801q0.8074951 0.27337646 1.9472656 -0.20065308q1.1252441 -0.4680481 1.8013306 -1.324585q0.6760254 -0.85653687 0.72595215 -1.8757324q0.0413208 -0.7956238 -0.49267578 -2.0796204l-0.30004883 -0.721344zm5.17395 0.5895386l1.80719 -1.1069946q0.6387329 1.0881348 1.6325073 1.4024658q1.0082397 0.3083496 2.3355103 -0.24368286q1.3416748 -0.55804443 1.7628784 -1.3762817q0.4212036 -0.8182373 0.11517334 -1.5540161q-0.27600098 -0.66363525 -1.0090942 -0.79870605q-0.4975586 -0.09768677 -2.2669678 0.1643982q-2.3571777 0.35427856 -3.355957 0.31277466q-0.99035645 -0.061950684 -1.7111816 -0.5744324q-0.71240234 -0.53289795 -1.0604248 -1.3696594q-0.31799316 -0.7646179 -0.24176025 -1.5578613q0.08465576 -0.81362915 0.5105591 -1.4984436q0.3092041 -0.5178528 0.99224854 -1.0726929q0.6914673 -0.57528687 1.5859375 -0.94729614q1.3561401 -0.5640259 2.5424805 -0.6005249q1.1863403 -0.036499023 1.944458 0.44354248q0.7664795 0.45962524 1.4160767 1.4924927l-1.7963257 1.0517273q-0.5018921 -0.8404541 -1.3262329 -1.0729675q-0.8303833 -0.24691772 -1.9700928 0.22711182q-1.3417358 0.55804443 -1.7327881 1.2452698q-0.39105225 0.68725586 -0.14508057 1.2787476q0.1560669 0.37512207 0.5272827 0.5760803q0.362854 0.22137451 0.96624756 0.20733643q0.33654785 -0.0045776367 1.9268188 -0.20910645q2.2910767 -0.30981445 3.2489624 -0.28515625q0.9663696 0.004211426 1.710022 0.4902649q0.75213623 0.4656372 1.1661377 1.4610901q0.40203857 0.96658325 0.18499756 2.072235q-0.20263672 1.0996094 -1.0722046 2.0197449q-0.87561035 0.90567017 -2.2316895 1.469696q-2.236206 0.9300842 -3.8032227 0.4987793q-1.5585938 -0.4517212 -2.6524658 -2.145935zm19.036865 -8.831543l2.020813 -0.5527649q0.51068115 2.1228943 -0.31970215 3.7882385q-0.82196045 1.6448975 -2.711914 2.4309387q-2.3515625 0.97805786 -4.4363403 0.034423828q-2.0703125 -0.949646 -3.2644043 -3.8205872q-0.77404785 -1.861084 -0.7357178 -3.5184937q0.038330078 -1.6574402 1.0054321 -2.8719482q0.9611206 -1.2289734 2.4470825 -1.8469849q1.8755493 -0.7800598 3.4545898 -0.31991577q1.5934448 0.4541626 2.6453247 2.0473633l-1.763916 1.0890198q-0.7601929 -1.0545654 -1.692688 -1.3436279q-0.92407227 -0.30947876 -1.9050903 0.09854126q-1.4715576 0.61203 -1.9508667 2.0636292q-0.4708252 1.4312134 0.4772339 3.7106628q0.960022 2.3082886 2.2781372 2.9954224q1.3324585 0.68115234 2.7607422 0.087127686q1.1397095 -0.47402954 1.6103516 -1.4989624q0.4850464 -1.0309448 0.08093262 -2.5720825zm5.315613 2.7305908l-4.7823486 -11.4982605l1.7456665 -0.7260437l0.7260742 1.7456665q0.16802979 -1.5083008 0.56866455 -2.131836q0.41503906 -0.6295471 1.0930786 -0.91156006q0.9810791 -0.40805054 2.2694092 -0.19927979l0.07196045 2.0853882q-0.8809204 -0.12435913 -1.6022949 0.17565918q-0.6347656 0.26400757 -0.99212646 0.86953735q-0.348938 0.5851135 -0.2833252 1.3531799q0.11462402 1.1707458 0.63067627 2.4114685l2.5021973 6.0160217l-1.9476318 0.8100586zm1.7438354 -16.700195l-0.9360962 -2.2506104l1.9476318 -0.8100281l0.9360962 2.2505798l-1.9476318 0.8100586zm5.6643677 13.618988l-4.7823486 -11.49823l1.9476929 -0.8100586l4.7822876 11.4982605l-1.9476318 0.8100281zm6.7388916 2.3585815l-6.6124268 -15.8984375l1.7744751 -0.7380371l0.6240845 1.5003967q0.2687378 -1.1440735 0.86779785 -1.9008789q0.6074219 -0.7772522 1.732727 -1.2453003q1.4715576 -0.61203 2.914917 -0.3154297q1.4373169 0.28216553 2.590393 1.427124q1.1531372 1.144989 1.8371582 2.7896423q0.73205566 1.7601013 0.68530273 3.4379272q-0.046691895 1.6778564 -0.9465332 2.9320984q-0.885437 1.24823 -2.2127075 1.8002625q-0.98101807 0.40802002 -1.9281006 0.32809448q-0.93865967 -0.100372314 -1.7075806 -0.5251465l2.328125 5.5976562l-1.9476318 0.8100281zm-2.4197388 -10.822449q0.92401123 2.2217407 2.2625122 2.917328q1.3325195 0.6811218 2.616516 0.14709473q1.2984009 -0.54000854 1.7657471 -2.0204773q0.46728516 -1.4804688 -0.49279785 -3.7887878q-0.91204834 -2.1929016 -2.2769775 -2.911316q-1.3505249 -0.72442627 -2.6056519 -0.20239258q-1.255127 0.5220337 -1.7213135 2.0866394q-0.47210693 1.5501709 0.45196533 3.7719116zm16.443726 -2.2193298l1.0025635 1.5968018q-0.74432373 0.52957153 -1.3934937 0.79959106q-1.067627 0.44403076 -1.7971191 0.35821533q-0.7211304 -0.10623169 -1.194397 -0.5524292q-0.45880127 -0.45220947 -1.1848755 -2.197876l-2.7542114 -6.6219482l-1.4282227 0.59402466l-0.6300659 -1.5148315l1.4282837 -0.59402466l-1.1821289 -2.842102l1.4472046 -1.9726257l1.6680908 4.010681l1.9620972 -0.81604004l0.6300049 1.514801l-1.9620361 0.81607056l2.7962036 6.722931q0.34802246 0.8367615 0.5510254 1.0400085q0.21142578 0.18283081 0.5022583 0.23110962q0.28479004 0.033813477 0.71765137 -0.1461792q0.3173828 -0.13201904 0.821167 -0.42617798zm1.2836914 1.8352661l-2.2202759 -18.317505l1.5581055 -0.6480408l2.2346802 18.311523l-1.5725098 0.6540222z" fill-rule="nonzero"/><path fill="#ffffff" d="m559.8598 436.57516l-6.600464 -15.869598l11.46936 -4.7702637l0.78009033 1.8754883l-9.377502 3.900238l2.0221558 4.861847l8.771545 -3.6481934l0.77404785 1.8610535l-8.771545 3.6482239l2.2441406 5.3956604l9.738159 -4.050232l0.78009033 1.8754883l-11.830078 4.920288zm11.897583 -10.922028l1.90448 -0.9951782q0.6362915 1.1229858 1.4592896 1.6776123q0.83740234 0.5486145 2.1174316 0.5746765q1.2739868 0.011627197 2.630127 -0.5523987q1.1974487 -0.49804688 1.9767456 -1.228302q0.7733154 -0.74468994 0.9625244 -1.5510559q0.18322754 -0.8208008 -0.122802734 -1.5565796q-0.30596924 -0.7357788 -0.97283936 -1.1184082q-0.6668091 -0.3826294 -1.8182983 -0.34371948q-0.7367554 0.01876831 -3.145691 0.411438q-2.4004517 0.37228394 -3.4725342 0.27664185q-1.3857422 -0.117492676 -2.314392 -0.7635193q-0.9202881 -0.6664429 -1.3703003 -1.7484741q-0.5040283 -1.211853 -0.2579956 -2.5325928q0.260437 -1.3267517 1.336853 -2.4006042q1.0848389 -1.0942383 2.6862183 -1.7602844q1.7601318 -0.73205566 3.3358154 -0.727417q1.5901489 -0.0014038086 2.7735596 0.80944824q1.1917725 0.7904358 1.8170776 2.1718445l-1.939331 0.9927368q-0.7886963 -1.448822 -2.0444946 -1.8234253q-1.2557983 -0.37460327 -3.0880127 0.38745117q-1.9043579 0.7920532 -2.4903564 1.8649902q-0.5775757 1.0525208 -0.16955566 2.0335388q0.3540039 0.8511963 1.2023926 1.1413879q0.8399658 0.31063843 3.633545 -0.17434692q2.8079834 -0.4909973 3.9401855 -0.45419312q1.6489868 0.058746338 2.7062378 0.7697449q1.0716553 0.7050171 1.5997314 1.9745789q0.52801514 1.2695923 0.27471924 2.6948853q-0.25933838 1.4108887 -1.3514404 2.6097107q-1.0981445 1.1843872 -2.800476 1.892456q-2.1496582 0.89404297 -3.864746 0.8797302q-1.7211914 -0.028747559 -3.079956 -0.93588257q-1.3504028 -0.92755127 -2.053711 -2.4964905zm21.944885 -17.19928l-1.873169 0.94833374q-0.7337036 -1.0317078 -1.4258423 -1.3530884q-1.1414795 -0.5067444 -2.2956543 -0.02670288q-0.92333984 0.3840332 -1.4142456 1.1974182q-0.64727783 1.0476685 -0.64105225 2.5680847q0.0146484375 1.5 0.9758911 3.892456q0.26287842 -1.3616028 1.0567627 -2.3009949q0.8082886 -0.94540405 1.9191895 -1.4074402q1.9476318 -0.8100281 3.9122314 0.048187256q1.9645996 0.85821533 2.9126587 3.1376953q0.618042 1.4859619 0.50286865 3.039978q-0.10076904 1.5480042 -0.9380493 2.7085266q-0.8432617 1.1460876 -2.2715454 1.7401123q-2.4381714 1.0140686 -4.725891 -0.13284302q-2.2792969 -1.1672974 -3.98938 -5.2789917q-1.9081421 -4.587738 -1.0758667 -7.3876953q0.71551514 -2.4298096 3.22583 -3.473877q1.8754883 -0.7800598 3.5109253 -0.22491455q1.6294556 0.54071045 2.6343384 2.3057556zm-5.1050415 10.144562q0.4140625 0.9954529 1.2164917 1.7447815q0.8168335 0.74331665 1.7854614 0.915802q0.9770508 0.15206909 1.8138428 -0.19595337q1.2406616 -0.5160217 1.7067261 -1.8775024q0.4804077 -1.3674927 -0.23364258 -3.0842896q-0.684021 -1.6446533 -1.9541016 -2.2164001q-1.276062 -0.5861511 -2.6033325 -0.034118652q-1.3128662 0.546051 -1.8401489 1.8822327q-0.5333252 1.3217773 0.10870361 2.865448z" fill-rule="nonzero"/><path fill="#cfe2f3" d="m391.82065 224.07059l0 0c0.97543335 3.557434 16.28482 2.4601593 34.194458 -2.4508362c17.909637 -4.9109955 31.637512 -11.776016 30.662048 -15.333435l0 0c-0.97546387 -3.557434 12.752411 -10.42244 30.662048 -15.333435c17.909607 -4.9109955 33.219025 -6.0082703 34.19449 -2.4508514l14.1297 51.530365c-0.97546387 -3.557434 -16.284851 -2.4601593 -34.194458 2.4508362c-17.909637 4.9109955 -31.637512 11.776001 -30.662048 15.33342c0.97546387 3.557434 -12.752411 10.422455 -30.662048 15.333435c-17.909637 4.9110107 -33.219025 6.008301 -34.194458 2.4508667z" fill-rule="evenodd"/><path stroke="#000000" stroke-width="1.0" stroke-linejoin="round" stroke-linecap="butt" d="m391.82065 224.07059l0 0c0.97543335 3.557434 16.28482 2.4601593 34.194458 -2.4508362c17.909637 -4.9109955 31.637512 -11.776016 30.662048 -15.333435l0 0c-0.97546387 -3.557434 12.752411 -10.42244 30.662048 -15.333435c17.909607 -4.9109955 33.219025 -6.0082703 34.19449 -2.4508514l14.1297 51.530365c-0.97546387 -3.557434 -16.284851 -2.4601593 -34.194458 2.4508362c-17.909637 4.9109955 -31.637512 11.776001 -30.662048 15.33342c0.97546387 3.557434 -12.752411 10.422455 -30.662048 15.333435c-17.909637 4.9110107 -33.219025 6.008301 -34.194458 2.4508667z" fill-rule="evenodd"/><path fill="#000000" d="m431.11996 249.85202l-4.545105 -16.575653l5.6960144 -1.5619049q1.9438477 -0.53302 3.0195618 -0.56877136q1.5224304 -0.061019897 2.7525024 0.52519226q1.6126099 0.74053955 2.7357178 2.295761q1.1340637 1.5360413 1.7414551 3.7511444q0.5164795 1.883606 0.46520996 3.4692383q-0.036193848 1.5814972 -0.4649048 2.735962q-0.41778564 1.1352844 -1.0978088 1.905014q-0.664978 0.76560974 -1.7467651 1.3700714q-1.0817871 0.6044769 -2.5886536 1.0176697l-5.967224 1.6362762zm1.6478271 -2.5580902l3.5411377 -0.9710083q1.6424866 -0.45039368 2.479065 -1.0038147q0.85162354 -0.55755615 1.2562866 -1.2679901q0.56869507 -0.9984436 0.64624023 -2.4292603q0.07336426 -1.4458771 -0.43896484 -3.3144073q-0.71484375 -2.6068878 -1.9538879 -3.7576904q-1.2431946 -1.1658783 -2.5918274 -1.2983246q-0.96902466 -0.106918335 -2.9279785 0.43023682l-3.4808655 0.9544983l3.4707947 12.657761zm10.899567 -16.160812l-0.64871216 -2.365799l2.0342712 -0.55781555l0.64871216 2.365799l-2.0342712 0.55781555zm2.5812988 19.576813l-0.08337402 -1.840332q0.64819336 4.7302246E-4 1.0098572 -0.09869385q0.61779785 -0.16941833 0.8034973 -0.6739807q0.2048645 -0.49363708 -0.24551392 -2.1361237l-3.4625244 -12.62764l2.0343018 -0.55781555l3.4749146 12.672836q0.60739136 2.2151184 0.2552185 3.2351837q-0.4133911 1.3284912 -2.131256 1.7995453q-0.82876587 0.22724915 -1.6551208 0.22702026zm13.888123 -10.402374q-0.86987305 1.2592316 -1.8131104 1.9553223q-0.932312 0.67689514 -2.1227417 1.0033264q-1.973999 0.5412903 -3.3083496 -0.12973022q-1.3192444 -0.6751709 -1.7324219 -2.1820374q-0.24377441 -0.8890686 -0.050323486 -1.7198029q0.20852661 -0.8348541 0.7366333 -1.4495239q0.52401733 -0.6297455 1.2757568 -1.0789032q0.5614319 -0.31596375 1.7256165 -0.7972107q2.3886108 -0.9790344 3.4373474 -1.7040558q-0.09649658 -0.41098022 -0.12954712 -0.5315399q-0.33880615 -1.2356415 -1.0669861 -1.5868225q-0.9585571 -0.48243713 -2.495575 -0.06097412q-1.4465942 0.39666748 -1.9841919 1.0949554q-0.54174805 0.6832123 -0.5220642 2.0549622l-2.063446 0.27418518q-0.079956055 -1.3552246 0.32299805 -2.3082123q0.4029541 -0.9529877 1.462616 -1.6972198q1.055542 -0.75927734 2.6076355 -1.1848755q1.5370178 -0.421463 2.6005554 -0.32426453q1.0635681 0.09719849 1.6685181 0.53079224q0.60079956 0.41851807 1.013031 1.2127838q0.230896 0.48754883 0.6027527 1.8437347l0.7437439 2.7123718q0.77679443 2.8329315 1.1190186 3.5491943q0.34222412 0.71624756 0.9089966 1.3061066l-2.1246948 0.5826111q-0.48999023 -0.54611206 -0.8117676 -1.3651733zm-1.4136047 -4.5053253q-0.9911194 0.757843 -3.1194763 1.6816864q-1.2011108 0.5237732 -1.6665344 0.89442444q-0.45037842 0.36653137 -0.6168518 0.8820343q-0.1513977 0.5113678 -0.00680542 1.0387726q0.22314453 0.81370544 0.9746399 1.1909027q0.76657104 0.3730774 1.9570007 0.04664612q1.175354 -0.32229614 1.954071 -1.0866852q0.77871704 -0.76438904 0.95684814 -1.7691498q0.14144897 -0.7840729 -0.22628784 -2.125183l-0.206604 -0.7534485zm6.855255 4.600937l-3.2931213 -12.009811l1.8383789 -0.5041046l0.47103882 1.7178497q0.78063965 -2.352707 3.2669983 -3.0344849q1.0849304 -0.2975006 2.0964966 -0.15362549q1.0266113 0.13972473 1.6522217 0.6486664q0.62561035 0.5089264 1.0460815 1.3333282q0.2734375 0.52449036 0.6618347 1.9409485l2.0246277 7.383713l-2.0343018 0.55781555l-2.0039673 -7.308365q-0.33880615 -1.2356415 -0.7493286 -1.7873383q-0.41049194 -0.55171204 -1.1123962 -0.7480774q-0.7060547 -0.21144104 -1.5197754 0.011688232q-1.2958984 0.35534668 -2.0179749 1.4444427q-0.7220764 1.0890961 -0.089904785 3.3946228l1.7973633 6.5549164l-2.0342712 0.55781555zm12.783539 -2.4360352l2.0566406 -0.2399292q0.36846924 0.8710785 1.0567627 1.1359863q0.9104614 0.36601257 2.2214355 0.0065307617q1.4164429 -0.38841248 2.027954 -1.1717529q0.6156311 -0.76828 0.605896 -1.8673248q-0.018737793 -0.65914917 -0.5791931 -2.6440887q-0.8963318 1.9307709 -2.8854065 2.4761963q-2.471283 0.6776428 -4.315033 -0.7285919q-1.8479004 -1.4213104 -2.533783 -3.9227295q-0.47103882 -1.7178345 -0.24987793 -3.333847q0.21704102 -1.6310883 1.1775208 -2.7369537q0.97146606 -1.1250763 2.5687256 -1.5630646q2.1246948 -0.5826111 3.9670105 0.7592163l-0.39666748 -1.4466095l1.8835754 -0.51649475l2.8468933 10.382385q0.76852417 2.8027954 0.5140686 4.120102q-0.2503357 1.3323822 -1.3000183 2.3493042q-1.0497131 1.016922 -2.8579712 1.5127563q-2.1548157 0.59088135 -3.7453003 -0.009918213q-1.5754395 -0.6049042 -2.0632324 -2.5611725zm-0.30654907 -7.676605q0.64871216 2.365799 1.8804626 3.1945648q1.2468262 0.824646 2.6632996 0.43623352q1.4013672 -0.38427734 2.0573425 -1.7144775q0.65185547 -1.3452606 0.01965332 -3.6507874q-0.60324097 -2.2000427 -1.8884888 -3.0465546q-1.2893372 -0.86157227 -2.6756592 -0.48143005q-1.3562012 0.37187195 -2.0039062 1.7322083q-0.6477051 1.3603363 -0.052703857 3.530243zm10.870026 -2.7376404q-0.91726685 -3.3452759 0.49819946 -5.4507904q1.1843567 -1.7667236 3.4145203 -2.3782501q2.471283 -0.6776581 4.48468 0.52005005q2.0133972 1.1976929 2.7943115 4.0457q0.636322 2.3205872 0.3067627 3.8367157q-0.32955933 1.5161133 -1.4531555 2.618103q-1.1235962 1.1019897 -2.6907349 1.531723q-2.5315552 0.6941681 -4.5257263 -0.4925995q-1.998352 -1.201828 -2.8288574 -4.230652zm2.094574 -0.5743408q0.63217163 2.3055115 1.9407349 3.1780243q1.3236389 0.86839294 2.8606262 0.44692993q1.506897 -0.413208 2.2024841 -1.8352661q0.69143677 -1.437149 0.04272461 -3.802948q-0.61151123 -2.2301788 -1.9502258 -3.0944214q-1.3236084 -0.86839294 -2.8154297 -0.45932007q-1.5370178 0.421463 -2.232605 1.8435364q-0.6805115 1.4179382 -0.048309326 3.723465z" fill-rule="nonzero"/></g></svg>