<svg version="1.1" viewBox="0.0 0.0 960.0 720.0" fill="none" stroke="none" stroke-linecap="square" stroke-miterlimit="10" xmlns:xlink="http://www.w3.org/1999/xlink" xmlns="http://www.w3.org/2000/svg"><clipPath id="p.0"><path d="m0 0l960.0 0l0 720.0l-960.0 0l0 -720.0z" clip-rule="nonzero"/></clipPath><g clip-path="url(#p.0)"><path fill="#000000" fill-opacity="0.0" d="m0 0l960.0 0l0 720.0l-960.0 0z" fill-rule="evenodd"/><path fill="#000000" fill-opacity="0.0" d="m422.29398 380.3281l755.4016 0l0 88.12598l-755.4016 0z" fill-rule="evenodd"/><path fill="#cfe2f3" d="m823.60596 502.29443c117.81409 0.8744507 108.19733 150.16449 116.7218 180.98425c8.524475 30.819763 -11.367004 -0.8744507 -65.57483 3.9343872c-54.207764 4.808838 -141.20209 21.202515 -259.67188 24.91864c-118.46985 3.7160645 -367.21262 -2.4033203 -451.147 -2.6220703c-83.93438 -0.21868896 -39.781708 0.21697998 -52.459312 1.3096924c-12.677605 1.0927734 -20.764656 6.5582275 -23.6063 5.246765c-2.8416443 -1.3114624 -4.153984 -10.055603 6.556427 -13.1154785c10.710411 -3.0599365 34.536316 -1.0910034 57.70604 -5.2441406c23.169724 -4.153076 -30.600174 12.894165 81.31233 -19.6745c111.912506 -32.568726 472.34863 -176.612 590.1627 -175.73755z" fill-rule="evenodd"/><path stroke="#000000" stroke-width="1.0" stroke-linejoin="round" stroke-linecap="butt" d="m823.60596 502.29443c117.81409 0.8744507 108.19733 150.16449 116.7218 180.98425c8.524475 30.819763 -11.367004 -0.8744507 -65.57483 3.9343872c-54.207764 4.808838 -141.20209 21.202515 -259.67188 24.91864c-118.46985 3.7160645 -367.21262 -2.4033203 -451.147 -2.6220703c-83.93438 -0.21868896 -39.781708 0.21697998 -52.459312 1.3096924c-12.677605 1.0927734 -20.764656 6.5582275 -23.6063 5.246765c-2.8416443 -1.3114624 -4.153984 -10.055603 6.556427 -13.1154785c10.710411 -3.0599365 34.536316 -1.0910034 57.70604 -5.2441406c23.169724 -4.153076 -30.600174 12.894165 81.31233 -19.6745c111.912506 -32.568726 472.34863 -176.612 590.1627 -175.73755z" fill-rule="evenodd"/><path fill="#9dc040" d="m254.424 32.787758c-9.836395 8.961941 -8.743225 17.048557 -15.737534 51.14698c-6.9943085 34.098427 -21.856964 121.094055 -26.228348 153.44357c-4.3713837 32.349503 2.8416443 29.506119 0 40.65355c-2.8416443 11.1474 -13.333771 9.61853 -17.049866 26.230957c-3.716095 16.612427 0.4361267 53.771667 -5.2467194 73.44357c-5.6828613 19.671906 -17.047241 21.63736 -28.850403 44.58792c-11.803146 22.950562 -34.536736 73.661865 -41.9685 93.11548c-7.431755 19.453674 2.6237946 18.141724 -2.6220474 23.606323c-5.245842 5.4645386 -20.984253 3.4978027 -28.85302 9.181091c-7.868767 5.6832886 -13.98819 17.049866 -18.359581 24.91864c-4.3713913 7.8687744 -8.524494 1.9663086 -7.868763 22.293945c0.6557312 20.327637 -1.5301857 87.650085 11.80315 99.671936c13.333336 12.021851 38.907257 -18.797485 68.19685 -27.54071c29.289581 -8.743225 1.0927277 5.0267334 107.54068 -24.91864c106.44794 -29.945312 459.45322 -119.78082 531.147 -154.75327c71.69379 -34.972443 -84.809326 -29.507416 -100.98425 -55.08136c-16.174988 -25.573914 36.065613 -46.340332 3.9343872 -98.36221c-32.131287 -52.02185 -164.37231 -170.49036 -196.7218 -213.76901c-32.349518 -43.278656 6.1216125 -36.066933 2.6246643 -45.902885c-3.4969482 -9.83596 -16.39328 -10.927387 -23.606293 -13.112865c-7.213043 -2.1854744 -8.961517 2.622921 -19.671936 0c-10.710388 -2.622921 -34.75415 -8.742779 -44.590546 -15.73753c-9.836395 -6.994751 -2.624237 -21.64042 -14.427826 -26.230972c-11.803589 -4.5905514 -41.53061 -3.0608044 -56.393677 -1.312336c-14.863098 1.7484684 -20.107178 9.398512 -32.78479 11.80315c-12.677612 2.4046364 -33.444458 -6.3372707 -43.280838 2.624672z" fill-rule="evenodd"/><path stroke="#000000" stroke-width="1.0" stroke-linejoin="round" stroke-linecap="butt" d="m254.424 32.787758c-9.836395 8.961941 -8.743225 17.048557 -15.737534 51.14698c-6.9943085 34.098427 -21.856964 121.094055 -26.228348 153.44357c-4.3713837 32.349503 2.8416443 29.506119 0 40.65355c-2.8416443 11.1474 -13.333771 9.61853 -17.049866 26.230957c-3.716095 16.612427 0.4361267 53.771667 -5.2467194 73.44357c-5.6828613 19.671906 -17.047241 21.63736 -28.850403 44.58792c-11.803146 22.950562 -34.536736 73.661865 -41.9685 93.11548c-7.431755 19.453674 2.6237946 18.141724 -2.6220474 23.606323c-5.245842 5.4645386 -20.984253 3.4978027 -28.85302 9.181091c-7.868767 5.6832886 -13.98819 17.049866 -18.359581 24.91864c-4.3713913 7.8687744 -8.524494 1.9663086 -7.868763 22.293945c0.6557312 20.327637 -1.5301857 87.650085 11.80315 99.671936c13.333336 12.021851 38.907257 -18.797485 68.19685 -27.54071c29.289581 -8.743225 1.0927277 5.0267334 107.54068 -24.91864c106.44794 -29.945312 459.45322 -119.78082 531.147 -154.75327c71.69379 -34.972443 -84.809326 -29.507416 -100.98425 -55.08136c-16.174988 -25.573914 36.065613 -46.340332 3.9343872 -98.36221c-32.131287 -52.02185 -164.37231 -170.49036 -196.7218 -213.76901c-32.349518 -43.278656 6.1216125 -36.066933 2.6246643 -45.902885c-3.4969482 -9.83596 -16.39328 -10.927387 -23.606293 -13.112865c-7.213043 -2.1854744 -8.961517 2.622921 -19.671936 0c-10.710388 -2.622921 -34.75415 -8.742779 -44.590546 -15.73753c-9.836395 -6.994751 -2.624237 -21.64042 -14.427826 -26.230972c-11.803589 -4.5905514 -41.53061 -3.0608044 -56.393677 -1.312336c-14.863098 1.7484684 -20.107178 9.398512 -32.78479 11.80315c-12.677612 2.4046364 -33.444458 -6.3372707 -43.280838 2.624672z" fill-rule="evenodd"/></g></svg>