<svg version="1.1" viewBox="0.0 0.0 960.0 720.0" fill="none" stroke="none" stroke-linecap="square" stroke-miterlimit="10" xmlns:xlink="http://www.w3.org/1999/xlink" xmlns="http://www.w3.org/2000/svg"><clipPath id="p.0"><path d="m0 0l960.0 0l0 720.0l-960.0 0l0 -720.0z" clip-rule="nonzero"/></clipPath><g clip-path="url(#p.0)"><path fill="#000000" fill-opacity="0.0" d="m0 0l960.0 0l0 720.0l-960.0 0z" fill-rule="evenodd"/><path fill="#000000" fill-opacity="0.0" d="m422.29398 380.3281l755.4016 0l0 88.12598l-755.4016 0z" fill-rule="evenodd"/><path fill="#000000" fill-opacity="0.0" d="m60.327324 709.5085c0 -42.623352 0 -42.623352 0 -85.246704c0 -17.48645 -11.379398 -39.182068 0 -52.45929c6.6655884 -7.7772827 15.090263 -14.4453125 19.671913 -23.606323c2.3625488 -4.723938 1.4322968 -13.14447 6.5564346 -14.425232c6.17572 -1.5435181 14.4292755 -0.24127197 18.362206 -5.246704c9.993568 -12.71875 8.9590225 -31.216492 15.737534 -45.902863c19.911377 -43.14023 44.584152 -84.17728 61.637787 -128.52493c6.919693 -17.994537 0.15452576 -38.798462 3.9343872 -57.70343c4.2286224 -21.149445 16.91542 -40.249573 19.674545 -61.64041c10.039047 -77.830246 8.93663 -164.2047 52.456696 -229.50656c2.9194946 -4.3807077 5.654602 9.729563 10.493439 11.80315c3.0596313 1.3111439 5.9492188 -4.742099 9.178467 -3.9343843c4.0240784 1.0065203 7.683136 4.3927584 11.805786 3.9343843c33.49951 -3.7246532 68.46307 -14.11434 100.98163 -5.2467203c17.022339 4.6418943 22.226227 31.13219 39.34381 35.40945c11.883057 2.9692764 24.764862 3.968544 36.7218 1.312336c5.6938477 -1.2648773 12.925568 -8.058685 17.049866 -3.9343834c10.551056 10.551071 29.477081 11.382271 38.03415 23.606297c7.5996094 10.856331 -11.779541 -3.0569534 -3.9370117 23.6063c5.0213623 17.071877 15.487122 32.12255 24.91864 47.2126c9.180481 14.688492 38.897705 -3.0659332 51.146973 9.181107c9.658142 9.656418 21.159546 18.794052 26.230957 31.475067c6.421814 16.0578 4.8320312 35.447525 14.425171 49.837265c7.234131 10.851196 19.086304 18.498047 24.91864 30.162735c2.7438965 5.487732 -1.7307129 13.031921 1.3123779 18.359558c9.966797 17.449402 33.803284 24.91809 41.96588 43.280853c5.902771 13.279083 13.937256 26.236176 15.737488 40.65616c0.868103 6.9535217 -6.630371 16.421478 -1.3096924 20.981628c3.8849487 3.3296509 11.149536 1.3161621 14.425171 5.2467346c8.743347 10.491241 18.151978 20.462158 26.228394 31.475067c8.389404 11.439819 8.220642 11.576752 15.740112 23.606293c2.331604 3.730011 0.64697266 4.946106 3.9343872 7.8687744c3.934143 3.4975586 11.693359 -2.057373 15.737549 1.3123169c11.164185 9.302246 -0.6486206 29.493164 -5.246704 43.27823" fill-rule="evenodd"/><path stroke="#9dc040" stroke-width="4.0" stroke-linejoin="round" stroke-linecap="butt" d="m60.327324 709.5085c0 -42.623352 0 -42.623352 0 -85.246704c0 -17.48645 -11.379398 -39.182068 0 -52.45929c6.6655884 -7.7772827 15.090263 -14.4453125 19.671913 -23.606323c2.3625488 -4.723938 1.4322968 -13.14447 6.5564346 -14.425232c6.17572 -1.5435181 14.4292755 -0.24127197 18.362206 -5.246704c9.993568 -12.71875 8.9590225 -31.216492 15.737534 -45.902863c19.911377 -43.14023 44.584152 -84.17728 61.637787 -128.52493c6.919693 -17.994537 0.15452576 -38.798462 3.9343872 -57.70343c4.2286224 -21.149445 16.91542 -40.249573 19.674545 -61.64041c10.039047 -77.830246 8.93663 -164.2047 52.456696 -229.50656c2.9194946 -4.3807077 5.654602 9.729563 10.493439 11.80315c3.0596313 1.3111439 5.9492188 -4.742099 9.178467 -3.9343843c4.0240784 1.0065203 7.683136 4.3927584 11.805786 3.9343843c33.49951 -3.7246532 68.46307 -14.11434 100.98163 -5.2467203c17.022339 4.6418943 22.226227 31.13219 39.34381 35.40945c11.883057 2.9692764 24.764862 3.968544 36.7218 1.312336c5.6938477 -1.2648773 12.925568 -8.058685 17.049866 -3.9343834c10.551056 10.551071 29.477081 11.382271 38.03415 23.606297c7.5996094 10.856331 -11.779541 -3.0569534 -3.9370117 23.6063c5.0213623 17.071877 15.487122 32.12255 24.91864 47.2126c9.180481 14.688492 38.897705 -3.0659332 51.146973 9.181107c9.658142 9.656418 21.159546 18.794052 26.230957 31.475067c6.421814 16.0578 4.8320312 35.447525 14.425171 49.837265c7.234131 10.851196 19.086304 18.498047 24.91864 30.162735c2.7438965 5.487732 -1.7307129 13.031921 1.3123779 18.359558c9.966797 17.449402 33.803284 24.91809 41.96588 43.280853c5.902771 13.279083 13.937256 26.236176 15.737488 40.65616c0.868103 6.9535217 -6.630371 16.421478 -1.3096924 20.981628c3.8849487 3.3296509 11.149536 1.3161621 14.425171 5.2467346c8.743347 10.491241 18.151978 20.462158 26.228394 31.475067c8.389404 11.439819 8.220642 11.576752 15.740112 23.606293c2.331604 3.730011 0.64697266 4.946106 3.9343872 7.8687744c3.934143 3.4975586 11.693359 -2.057373 15.737549 1.3123169c11.164185 9.302246 -0.6486206 29.493164 -5.246704 43.27823" fill-rule="evenodd"/><path fill="#000000" fill-opacity="0.0" d="m820.98425 486.55643l-792.126 232.126" fill-rule="evenodd"/><path stroke="#9dc040" stroke-width="8.0" stroke-linejoin="round" stroke-linecap="butt" d="m820.98425 486.55643l-792.126 232.126" fill-rule="evenodd"/></g></svg>