<svg version="1.1" viewBox="0.0 0.0 960.0 720.0" fill="none" stroke="none" stroke-linecap="square" stroke-miterlimit="10" xmlns:xlink="http://www.w3.org/1999/xlink" xmlns="http://www.w3.org/2000/svg"><clipPath id="p.0"><path d="m0 0l960.0 0l0 720.0l-960.0 0l0 -720.0z" clip-rule="nonzero"/></clipPath><g clip-path="url(#p.0)"><path fill="#000000" fill-opacity="0.0" d="m0 0l960.0 0l0 720.0l-960.0 0z" fill-rule="evenodd"/><path fill="#000000" fill-opacity="0.0" d="m34.732285 241.78102c12.91251 0.22267151 61.891075 -30.945755 77.47507 1.335968c15.583984 32.281723 33.61679 157.17848 16.02887 192.35432c-17.587929 35.175842 -101.29703 15.583984 -121.556435 18.700775" fill-rule="evenodd"/><path stroke="#b30fb7" stroke-width="4.0" stroke-linejoin="round" stroke-linecap="butt" d="m34.732285 241.78102c12.91251 0.22267151 61.891075 -30.945755 77.47507 1.335968c15.583984 32.281723 33.61679 157.17848 16.02887 192.35432c-17.587929 35.175842 -101.29703 15.583984 -121.556435 18.700775" fill-rule="evenodd"/><path fill="#000000" fill-opacity="0.0" d="m204.37796 281.85565c0.66796875 22.931305 3.3398895 114.656586 4.0078735 137.58792" fill-rule="evenodd"/><path stroke="#b30fb7" stroke-width="4.0" stroke-linejoin="round" stroke-linecap="butt" d="m204.37796 281.85565c0.66796875 22.931305 3.3398895 114.656586 4.0078735 137.58792" fill-rule="evenodd"/><path fill="#000000" fill-opacity="0.0" d="m136.25197 360.66666c11.799652 0.22265625 58.998245 1.1133118 70.7979 1.335968" fill-rule="evenodd"/><path stroke="#b30fb7" stroke-width="4.0" stroke-linejoin="round" stroke-linecap="butt" d="m136.25197 360.66666c11.799652 0.22265625 58.998245 1.1133118 70.7979 1.335968" fill-rule="evenodd"/><path fill="#000000" fill-opacity="0.0" d="m243.11784 362.00253c5.565613 0.22265625 26.937424 5.7882996 33.393692 1.335968c6.4562683 -4.4523315 11.354767 -22.484253 5.3438416 -28.049866c-6.010956 -5.565613 -32.058624 -8.905945 -41.409454 -5.3438416c-9.35083 3.5621338 -18.925644 14.471558 -14.695541 26.716553c4.2301025 12.244965 33.396774 38.96106 40.076126 46.753265" fill-rule="evenodd"/><path stroke="#b30fb7" stroke-width="4.0" stroke-linejoin="round" stroke-linecap="butt" d="m243.11784 362.00253c5.565613 0.22265625 26.937424 5.7882996 33.393692 1.335968c6.4562683 -4.4523315 11.354767 -22.484253 5.3438416 -28.049866c-6.010956 -5.565613 -32.058624 -8.905945 -41.409454 -5.3438416c-9.35083 3.5621338 -18.925644 14.471558 -14.695541 26.716553c4.2301025 12.244965 33.396774 38.96106 40.076126 46.753265" fill-rule="evenodd"/><path fill="#000000" fill-opacity="0.0" d="m289.8714 281.85565c1.5581665 21.595367 7.7908936 107.97681 9.34906 129.57217" fill-rule="evenodd"/><path stroke="#b30fb7" stroke-width="4.0" stroke-linejoin="round" stroke-linecap="butt" d="m289.8714 281.85565c1.5581665 21.595367 7.7908936 107.97681 9.34906 129.57217" fill-rule="evenodd"/><path fill="#000000" fill-opacity="0.0" d="m316.5853 287.19946c1.7812805 22.263367 8.906403 111.31671 10.687683 133.58008" fill-rule="evenodd"/><path stroke="#b30fb7" stroke-width="4.0" stroke-linejoin="round" stroke-linecap="butt" d="m316.5853 287.19946c1.7812805 22.263367 8.906403 111.31671 10.687683 133.58008" fill-rule="evenodd"/><path fill="#b30fb7" d="m363.33826 344.63818c-1.335968 -8.237518 -31.39154 -13.803162 -21.372711 -21.372711c10.018799 -7.5695496 65.233154 -37.848206 81.485565 -24.044617c16.25241 13.803589 24.711731 89.055115 16.02887 106.86615c-8.682861 17.811035 -53.209534 5.56604 -68.12598 0c-14.916473 -5.5660706 -20.036774 -23.154846 -21.372711 -33.39633c-1.335968 -10.241455 14.692902 -19.814972 13.356964 -28.05249z" fill-rule="evenodd"/><path stroke="#b30fb7" stroke-width="4.0" stroke-linejoin="round" stroke-linecap="butt" d="m363.33826 344.63818c-1.335968 -8.237518 -31.39154 -13.803162 -21.372711 -21.372711c10.018799 -7.5695496 65.233154 -37.848206 81.485565 -24.044617c16.25241 13.803589 24.711731 89.055115 16.02887 106.86615c-8.682861 17.811035 -53.209534 5.56604 -68.12598 0c-14.916473 -5.5660706 -20.036774 -23.154846 -21.372711 -33.39633c-1.335968 -10.241455 14.692902 -19.814972 13.356964 -28.05249z" fill-rule="evenodd"/><path fill="#000000" fill-opacity="0.0" d="m496.92126 301.8924c1.112854 19.146545 5.5643005 95.73273 6.6771545 114.87927" fill-rule="evenodd"/><path stroke="#b30fb7" stroke-width="4.0" stroke-linejoin="round" stroke-linecap="butt" d="m496.92126 301.8924c1.112854 19.146545 5.5643005 95.73273 6.6771545 114.87927" fill-rule="evenodd"/><path fill="#000000" fill-opacity="0.0" d="m541.00287 408.75504c-0.44537354 -8.682404 -6.23407 -43.85739 -2.671936 -52.094482c3.5621338 -8.237091 19.146545 -2.4483643 24.044617 2.6719055c4.8980713 5.1203003 4.230957 29.385834 5.343811 28.049896c1.112854 -1.335968 -2.8963013 -30.722687 1.333374 -36.065643c4.2296143 -5.3429565 20.03717 -1.5577393 24.044617 4.0078735c4.0074463 5.5656433 1.112854 20.258118 0 29.385834c-1.112854 9.127747 -6.8998413 17.365723 -6.677185 25.380585c0.22265625 8.014862 0.44354248 18.92389 8.013123 22.708649c7.56958 3.78479 24.936584 -1.5585938 37.404175 0c12.467651 1.5586243 -9.351685 9.351715 37.40161 9.351715c46.753296 0 198.14563 -0.22354126 243.1181 -9.351715c44.972412 -9.128174 22.263794 -37.847748 26.716553 -45.417297" fill-rule="evenodd"/><path stroke="#b30fb7" stroke-width="4.0" stroke-linejoin="round" stroke-linecap="butt" d="m541.00287 408.75504c-0.44537354 -8.682404 -6.23407 -43.85739 -2.671936 -52.094482c3.5621338 -8.237091 19.146545 -2.4483643 24.044617 2.6719055c4.8980713 5.1203003 4.230957 29.385834 5.343811 28.049896c1.112854 -1.335968 -2.8963013 -30.722687 1.333374 -36.065643c4.2296143 -5.3429565 20.03717 -1.5577393 24.044617 4.0078735c4.0074463 5.5656433 1.112854 20.258118 0 29.385834c-1.112854 9.127747 -6.8998413 17.365723 -6.677185 25.380585c0.22265625 8.014862 0.44354248 18.92389 8.013123 22.708649c7.56958 3.78479 24.936584 -1.5585938 37.404175 0c12.467651 1.5586243 -9.351685 9.351715 37.40161 9.351715c46.753296 0 198.14563 -0.22354126 243.1181 -9.351715c44.972412 -9.128174 22.263794 -37.847748 26.716553 -45.417297" fill-rule="evenodd"/><path fill="#000000" fill-opacity="0.0" d="m637.1811 293.87665c1.3355103 18.03366 6.6776123 90.168396 8.013123 108.20209" fill-rule="evenodd"/><path stroke="#b30fb7" stroke-width="4.0" stroke-linejoin="round" stroke-linecap="butt" d="m637.1811 293.87665c1.3355103 18.03366 6.6776123 90.168396 8.013123 108.20209" fill-rule="evenodd"/><path fill="#000000" fill-opacity="0.0" d="m367.34647 276.5117c40.297028 2.6714783 199.70425 16.919525 241.78214 16.02887c42.07788 -0.890625 -44.75067 -19.146515 10.685059 -21.37268c55.43567 -2.2261658 268.2743 6.679779 321.92914 8.015747" fill-rule="evenodd"/><path stroke="#b30fb7" stroke-width="4.0" stroke-linejoin="round" stroke-linecap="butt" d="m367.34647 276.5117c40.297028 2.6714783 199.70425 16.919525 241.78214 16.02887c42.07788 -0.890625 -44.75067 -19.146515 10.685059 -21.37268c55.43567 -2.2261658 268.2743 6.679779 321.92914 8.015747" fill-rule="evenodd"/><path fill="#000000" fill-opacity="0.0" d="m658.55383 300.55643c1.3355103 16.697723 6.6775513 83.48862 8.013123 100.18634" fill-rule="evenodd"/><path stroke="#b30fb7" stroke-width="4.0" stroke-linejoin="round" stroke-linecap="butt" d="m658.55383 300.55643c1.3355103 16.697723 6.6775513 83.48862 8.013123 100.18634" fill-rule="evenodd"/><path fill="#000000" fill-opacity="0.0" d="m663.895 348.64438c2.8945923 -1.5586243 12.46936 -16.253265 17.367432 -9.351715c4.8980713 6.901581 12.466309 41.41034 12.020996 50.76117c-0.4453125 9.35083 -12.24408 4.453186 -14.692871 5.3438416" fill-rule="evenodd"/><path stroke="#b30fb7" stroke-width="4.0" stroke-linejoin="round" stroke-linecap="butt" d="m663.895 348.64438c2.8945923 -1.5586243 12.46936 -16.253265 17.367432 -9.351715c4.8980713 6.901581 12.466309 41.41034 12.020996 50.76117c-0.4453125 9.35083 -12.24408 4.453186 -14.692871 5.3438416" fill-rule="evenodd"/><path fill="#000000" fill-opacity="0.0" d="m710.6483 345.97375c0.66796875 8.237518 3.3398438 41.187653 4.0078735 49.4252" fill-rule="evenodd"/><path stroke="#b30fb7" stroke-width="4.0" stroke-linejoin="round" stroke-linecap="butt" d="m710.6483 345.97375c0.66796875 8.237518 3.3398438 41.187653 4.0078735 49.4252" fill-rule="evenodd"/><path fill="#000000" fill-opacity="0.0" d="m750.7245 357.99826c2.2261353 2.448822 9.572144 14.02536 13.356934 14.692902c3.78479 0.6675415 7.793091 -6.4575806 9.351746 -10.687653c1.5585938 -4.2301025 2.8945312 -11.130798 0 -14.692932c-2.8945923 -3.5621033 -10.243225 -7.5704346 -17.367493 -6.679779c-7.1242065 0.890625 -21.815796 6.0122375 -25.37793 12.023621c-3.5621338 6.011383 -1.3377075 17.588348 4.005249 24.044617c5.3429565 6.4562683 23.377075 12.24411 28.05249 14.692902" fill-rule="evenodd"/><path stroke="#b30fb7" stroke-width="4.0" stroke-linejoin="round" stroke-linecap="butt" d="m750.7245 357.99826c2.2261353 2.448822 9.572144 14.02536 13.356934 14.692902c3.78479 0.6675415 7.793091 -6.4575806 9.351746 -10.687653c1.5585938 -4.2301025 2.8945312 -11.130798 0 -14.692932c-2.8945923 -3.5621033 -10.243225 -7.5704346 -17.367493 -6.679779c-7.1242065 0.890625 -21.815796 6.0122375 -25.37793 12.023621c-3.5621338 6.011383 -1.3377075 17.588348 4.005249 24.044617c5.3429565 6.4562683 23.377075 12.24411 28.05249 14.692902" fill-rule="evenodd"/><path fill="#000000" fill-opacity="0.0" d="m793.47003 345.97375c0 8.682861 -0.22265625 49.870514 0 52.097107c0.22265625 2.226593 -4.006958 -28.941376 1.3359985 -38.73752c5.3429565 -9.796173 25.60144 -16.699493 30.72174 -20.039368" fill-rule="evenodd"/><path stroke="#b30fb7" stroke-width="4.0" stroke-linejoin="round" stroke-linecap="butt" d="m793.47003 345.97375c0 8.682861 -0.22265625 49.870514 0 52.097107c0.22265625 2.226593 -4.006958 -28.941376 1.3359985 -38.73752c5.3429565 -9.796173 25.60144 -16.699493 30.72174 -20.039368" fill-rule="evenodd"/><path fill="#000000" fill-opacity="0.0" d="m848.23535 336.6235c2.2265625 -4.0074463 14.249756 -33.39502 13.359558 -24.044617c-0.89019775 9.350372 -19.59143 80.592285 -18.700745 80.14697c0.890625 -0.4453125 16.92035 -70.7966 24.044617 -82.81891c7.1242065 -12.022308 15.806641 4.2287903 18.700745 10.685059c2.894165 6.456238 0.22265625 17.36612 -1.3359375 28.05249c-1.5585938 10.68634 -12.913818 30.944885 -8.015747 36.065613c4.8980713 5.1207275 31.170166 -4.4510193 37.404175 -5.341217" fill-rule="evenodd"/><path stroke="#b30fb7" stroke-width="4.0" stroke-linejoin="round" stroke-linecap="butt" d="m848.23535 336.6235c2.2265625 -4.0074463 14.249756 -33.39502 13.359558 -24.044617c-0.89019775 9.350372 -19.59143 80.592285 -18.700745 80.14697c0.890625 -0.4453125 16.92035 -70.7966 24.044617 -82.81891c7.1242065 -12.022308 15.806641 4.2287903 18.700745 10.685059c2.894165 6.456238 0.22265625 17.36612 -1.3359375 28.05249c-1.5585938 10.68634 -12.913818 30.944885 -8.015747 36.065613c4.8980713 5.1207275 31.170166 -4.4510193 37.404175 -5.341217" fill-rule="evenodd"/><path fill="#000000" fill-opacity="0.0" d="m923.0409 333.95166c-1.7808228 -4.0074463 -7.122925 -25.602783 -10.685059 -24.044617c-3.5620728 1.5581665 -10.910278 24.043304 -10.687622 33.393707c0.22265625 9.350372 7.3482056 18.92389 12.023621 22.708649c4.675415 3.78479 10.908569 0.8906555 16.02887 0c5.1203003 -0.890625 12.466736 2.0030823 14.692871 -5.3438416c2.2261963 -7.3468933 1.7808838 -30.500427 -1.3359375 -38.73752c-3.1167603 -8.237091 -14.470703 -8.904205 -17.364807 -10.685028" fill-rule="evenodd"/><path stroke="#b30fb7" stroke-width="4.0" stroke-linejoin="round" stroke-linecap="butt" d="m923.0409 333.95166c-1.7808228 -4.0074463 -7.122925 -25.602783 -10.685059 -24.044617c-3.5620728 1.5581665 -10.910278 24.043304 -10.687622 33.393707c0.22265625 9.350372 7.3482056 18.92389 12.023621 22.708649c4.675415 3.78479 10.908569 0.8906555 16.02887 0c5.1203003 -0.890625 12.466736 2.0030823 14.692871 -5.3438416c2.2261963 -7.3468933 1.7808838 -30.500427 -1.3359375 -38.73752c-3.1167603 -8.237091 -14.470703 -8.904205 -17.364807 -10.685028" fill-rule="evenodd"/></g></svg>