<svg version="1.1" viewBox="0.0 0.0 960.0 720.0" fill="none" stroke="none" stroke-linecap="square" stroke-miterlimit="10" xmlns:xlink="http://www.w3.org/1999/xlink" xmlns="http://www.w3.org/2000/svg"><clipPath id="p.0"><path d="m0 0l960.0 0l0 720.0l-960.0 0l0 -720.0z" clip-rule="nonzero"/></clipPath><g clip-path="url(#p.0)"><path fill="#000000" fill-opacity="0.0" d="m0 0l960.0 0l0 720.0l-960.0 0z" fill-rule="evenodd"/><path fill="#000000" fill-opacity="0.0" d="m0 199.70866l960.0 0l0 235.1811l-960.0 0z" fill-rule="evenodd"/><path fill="#b30fb7" d="m293.4845 363.10553q-19.046875 0 -33.125 -6.953125q-14.078125 -6.96875 -21.609375 -19.765625q-7.515625 -12.796875 -7.515625 -29.765625q0 -23.515625 8.875 -41.75q8.890625 -18.25 24.09375 -28.25q15.203125 -10.0 33.75 -10.0q17.28125 0 26.234375 8.890625q8.96875 8.875 8.96875 23.4375q0 9.765625 -3.4375 15.6875q-3.4375 5.90625 -9.84375 5.90625q-4.46875 0 -7.03125 -2.078125q-2.5625 -2.078125 -2.5625 -6.078125q0 -1.4375 0.640625 -5.28125q0.953125 -4.796875 0.953125 -7.671875q0 -14.5625 -15.515625 -14.5625q-10.5625 0 -20.171875 6.875q-9.59375 6.875 -15.515625 20.25q-5.90625 13.359375 -5.90625 31.75q0 19.203125 10.71875 29.6875q10.71875 10.46875 31.671875 10.46875q10.40625 0 21.046875 -2.640625q10.640625 -2.640625 23.59375 -8.078125q2.40625 -0.953125 4.0 -0.953125q2.5625 0 3.84375 1.921875q1.28125 1.921875 1.28125 4.953125q0 9.765625 -10.5625 14.40625q-11.359375 4.953125 -23.609375 7.28125q-12.234375 2.3125 -23.265625 2.3125zm71.994446 0q-9.4375 0 -16.078125 -4.71875q-6.640625 -4.71875 -10.0 -12.390625q-3.359375 -7.6875 -3.359375 -16.484375q0 -12.15625 4.5625 -21.671875q4.5625 -9.53125 12.390625 -14.890625q7.84375 -5.359375 17.609375 -5.359375q9.4375 0 16.15625 4.71875q6.71875 4.71875 10.078125 12.40625q3.359375 7.671875 3.359375 16.46875q0 12.171875 -4.640625 21.6875q-4.640625 9.515625 -12.5625 14.875q-7.921875 5.359375 -17.515625 5.359375zm1.765625 -17.28125q5.4375 0 9.1875 -5.90625q3.765625 -5.921875 3.765625 -17.296875q0 -8.796875 -3.203125 -13.265625q-3.1875 -4.484375 -7.671875 -4.484375q-5.765625 0 -9.53125 5.84375q-3.75 5.828125 -3.75 17.359375q0 9.109375 3.203125 13.4375q3.203125 4.3125 8.0 4.3125zm55.04254 17.28125q-6.09375 0 -8.578125 -6.390625q-2.46875 -6.40625 -2.46875 -20.484375q0 -20.796875 5.921875 -39.515625q1.4375 -4.640625 4.71875 -6.796875q3.28125 -2.171875 9.203125 -2.171875q3.203125 0 4.46875 0.8125q1.28125 0.796875 1.28125 3.03125q0 2.5625 -2.390625 11.515625q-1.609375 6.40625 -2.5625 11.203125q-0.953125 4.796875 -1.59375 11.84375q5.265625 -13.765625 11.828125 -22.40625q6.5625 -8.640625 12.875 -12.3125q6.328125 -3.6875 11.609375 -3.6875q5.125 0 7.765625 2.640625q2.640625 2.640625 2.640625 7.765625q0 4.15625 -1.765625 15.671875q-1.59375 9.765625 -2.5625 18.484375q-0.953125 8.71875 -0.953125 19.4375q0 6.078125 -2.484375 8.71875q-2.484375 2.640625 -8.078125 2.640625q-5.28125 0 -7.6875 -2.71875q-2.390625 -2.71875 -2.390625 -8.15625q0 -6.40625 2.234375 -21.125q1.921875 -12.796875 1.921875 -16.3125q0 -2.5625 -1.765625 -2.5625q-2.078125 0 -5.84375 5.359375q-3.75 5.359375 -7.671875 14.15625q-3.921875 8.796875 -6.3125 18.5625q-1.765625 7.515625 -4.09375 10.15625q-2.3125 2.640625 -7.265625 2.640625zm92.47131 -60.15625q-0.3125 8.0 -0.3125 12.484375q0 11.515625 1.1875 18.0q1.203125 6.46875 4.0 9.28125q2.8125 2.796875 7.765625 2.796875q2.5625 0 6.078125 -1.59375q3.515625 -1.609375 6.40625 -4.171875q1.75 -1.59375 3.515625 -1.59375q1.921875 0 3.125 2.15625q1.203125 2.15625 1.203125 5.203125q0 3.03125 -1.203125 5.921875q-1.203125 2.875 -3.609375 4.796875q-8.3125 6.875 -18.875 6.875q-15.203125 0 -22.25 -12.71875q-7.03125 -12.71875 -7.03125 -33.203125q0 -7.03125 0.484375 -14.234375l-6.25 0q-4.796875 0 -6.484375 -1.75q-1.671875 -1.765625 -1.671875 -5.609375q0 -8.96875 7.203125 -8.96875l9.125 0q2.71875 -17.59375 8.3125 -32.15625q5.609375 -14.5625 13.515625 -23.203125q7.921875 -8.640625 17.046875 -8.640625q6.71875 0 10.5625 5.921875q3.84375 5.921875 3.84375 14.890625q0 24.796875 -20.8125 43.1875l17.921875 0q2.5625 0 3.6875 1.125q1.125 1.125 1.125 4.15625q0 11.046875 -18.09375 11.046875l-19.515625 0zm16.96875 -64.953125q-2.40625 0 -5.375 6.0q-2.953125 6.0 -5.59375 16.640625q-2.640625 10.625 -4.390625 23.59375q9.4375 -8.15625 14.15625 -18.3125q4.71875 -10.171875 4.71875 -18.484375q0 -9.4375 -3.515625 -9.4375zm41.111267 125.109375q-9.125 0 -14.8125 -7.1875q-5.671875 -7.203125 -5.671875 -18.890625q0 -12.796875 5.921875 -24.234375q5.921875 -11.4375 15.765625 -18.390625q9.84375 -6.96875 20.875 -6.96875q3.53125 0 4.71875 1.359375q1.203125 1.359375 2.0 4.875q3.046875 -0.640625 6.71875 -0.640625q3.84375 0 5.921875 1.921875q2.078125 1.921875 2.078125 5.4375q0 3.6875 -1.59375 12.796875q-1.765625 9.765625 -2.734375 18.65625q-0.953125 8.875 -0.953125 19.90625q0 6.078125 -2.484375 8.71875q-2.46875 2.640625 -8.0625 2.640625q-5.453125 0 -8.09375 -2.640625q-2.625 -2.640625 -2.625 -8.5625l0.15625 -2.546875q-4.96875 13.75 -17.125 13.75zm6.234375 -16.15625q4.484375 0 8.15625 -6.234375q3.6875 -6.25 6.578125 -22.25l3.03125 -16.15625q-6.5625 0.15625 -12.171875 5.046875q-5.59375 4.875 -8.953125 12.875q-3.359375 8.0 -3.359375 16.953125q0 4.8125 1.84375 7.296875q1.84375 2.46875 4.875 2.46875zm78.40503 16.15625q-15.203125 0 -23.765625 -8.875q-8.546875 -8.875 -8.546875 -23.4375q0 -12.96875 5.109375 -22.71875q5.125 -9.765625 13.28125 -15.046875q8.171875 -5.28125 17.125 -5.28125q8.796875 0 13.671875 5.203125q4.890625 5.203125 4.890625 13.359375q0 6.71875 -2.96875 11.359375q-2.953125 4.640625 -7.75 4.640625q-3.046875 0 -4.890625 -1.4375q-1.828125 -1.4375 -1.828125 -4.0q0 -1.125 0.3125 -2.5625q0.328125 -1.4375 0.484375 -2.078125q0.796875 -2.40625 0.796875 -4.484375q0 -2.078125 -1.046875 -3.1875q-1.03125 -1.125 -2.953125 -1.125q-3.671875 0 -6.875 3.28125q-3.203125 3.28125 -5.125 8.875q-1.921875 5.59375 -1.921875 12.3125q0 9.125 3.75 13.84375q3.765625 4.71875 10.65625 4.71875q5.4375 0 10.0 -3.1875q4.5625 -3.203125 9.03125 -9.453125q1.921875 -2.390625 4.328125 -2.390625q2.078125 0 3.28125 1.921875q1.203125 1.90625 1.203125 5.265625q0 5.765625 -2.734375 9.921875q-4.3125 6.71875 -11.359375 10.640625q-7.03125 3.921875 -16.15625 3.921875zm61.28064 -60.15625q-0.3125 8.0 -0.3125 12.484375q0 11.515625 1.1875 18.0q1.203125 6.46875 4.0 9.28125q2.8125 2.796875 7.765625 2.796875q2.5625 0 6.078125 -1.59375q3.515625 -1.609375 6.40625 -4.171875q1.75 -1.59375 3.515625 -1.59375q1.921875 0 3.125 2.15625q1.203125 2.15625 1.203125 5.203125q0 3.03125 -1.203125 5.921875q-1.203125 2.875 -3.609375 4.796875q-8.3125 6.875 -18.875 6.875q-15.203125 0 -22.25 -12.71875q-7.03125 -12.71875 -7.03125 -33.203125q0 -7.03125 0.484375 -14.234375l-6.25 0q-4.796875 0 -6.484375 -1.75q-1.671875 -1.765625 -1.671875 -5.609375q0 -8.96875 7.203125 -8.96875l9.125 0q2.71875 -17.59375 8.3125 -32.15625q5.609375 -14.5625 13.515625 -23.203125q7.921875 -8.640625 17.046875 -8.640625q6.71875 0 10.5625 5.921875q3.84375 5.921875 3.84375 14.890625q0 24.796875 -20.8125 43.1875l17.921875 0q2.5625 0 3.6875 1.125q1.125 1.125 1.125 4.15625q0 11.046875 -18.09375 11.046875l-19.515625 0zm16.96875 -64.953125q-2.40625 0 -5.375 6.0q-2.953125 6.0 -5.59375 16.640625q-2.640625 10.625 -4.390625 23.59375q9.4375 -8.15625 14.15625 -18.3125q4.71875 -10.171875 4.71875 -18.484375q0 -9.4375 -3.515625 -9.4375z" fill-rule="nonzero"/></g></svg>