<svg version="1.1" viewBox="0.0 0.0 960.0 720.0" fill="none" stroke="none" stroke-linecap="square" stroke-miterlimit="10" xmlns:xlink="http://www.w3.org/1999/xlink" xmlns="http://www.w3.org/2000/svg"><clipPath id="p.0"><path d="m0 0l960.0 0l0 720.0l-960.0 0l0 -720.0z" clip-rule="nonzero"/></clipPath><g clip-path="url(#p.0)"><path fill="#000000" fill-opacity="0.0" d="m0 0l960.0 0l0 720.0l-960.0 0z" fill-rule="evenodd"/><path fill="#000000" fill-opacity="0.0" d="m0 171.80315l960.0 0l0 440.66138l-960.0 0z" fill-rule="evenodd"/><path fill="#b30fb7" d="m125.875 423.23755q1.5625 0 2.453125 1.453125q0.90625 1.4375 0.90625 3.953125q0 4.671875 -2.28125 7.4375q-11.875 14.515625 -25.3125 14.515625q-11.640625 0 -18.609375 -9.0q-6.953125 -9.0 -6.953125 -25.796875q0 -4.078125 0.359375 -8.15625q-7.921875 1.4375 -17.28125 2.15625q-6.234375 0.484375 -8.515625 0.609375q-2.40625 12.234375 -6.71875 30.0q-2.515625 10.4375 -9.609375 10.4375q-7.671875 0 -7.671875 -6.96875q0 -1.5625 0.59375 -4.3125q4.078125 -16.4375 6.484375 -27.84375l-5.765625 0.234375q-3.953125 0 -5.75 -1.375q-1.796875 -1.375 -1.796875 -4.5q0 -3.953125 2.265625 -5.8125q2.28125 -1.859375 7.5625 -2.109375l6.359375 -0.234375q3.125 -16.921875 3.125 -25.796875q0 -5.640625 -1.6875 -7.671875q-1.671875 -2.046875 -4.4375 -2.046875q-8.390625 0 -18.953125 14.03125q-1.5625 2.046875 -3.484375 2.046875q-1.671875 0 -2.875 -1.5625q-1.203125 -1.5625 -1.203125 -3.96875q0 -3.71875 3.0 -7.90625q5.28125 -7.328125 13.3125 -12.0625q8.046875 -4.75 16.328125 -4.75q7.796875 0 12.0625 5.34375q4.265625 5.34375 4.265625 16.625q0 9.953125 -2.890625 27.0l11.765625 -0.609375q7.5625 -0.359375 12.953125 -1.1875q2.171875 -13.203125 6.609375 -24.71875q4.4375 -11.53125 11.03125 -18.71875q6.609375 -7.203125 14.765625 -7.203125q6.0 0 9.46875 4.734375q3.484375 4.734375 3.484375 12.421875q0 29.765625 -30.359375 41.28125q-0.359375 4.796875 -0.359375 9.953125q0 12.609375 3.125 17.890625q3.125 5.265625 8.765625 5.265625q4.90625 0 8.984375 -2.578125q4.09375 -2.578125 9.25 -8.8125q1.4375 -1.6875 3.234375 -1.6875zm-16.1875 -68.03125q-2.640625 0 -5.59375 4.796875q-2.9375 4.796875 -5.578125 13.078125q-2.640625 8.28125 -4.203125 18.125q9.609375 -3.96875 14.171875 -11.28125q4.5625 -7.328125 4.5625 -18.84375q0 -2.765625 -0.96875 -4.3125q-0.953125 -1.5625 -2.390625 -1.5625zm52.791153 71.640625q1.5625 0 2.453125 1.4375q0.90625 1.4375 0.90625 3.953125q0 4.328125 -2.03125 7.453125q-3.359375 5.15625 -8.828125 8.03125q-5.453125 2.875 -13.015625 2.875q-11.515625 0 -17.890625 -6.890625q-6.359375 -6.90625 -6.359375 -18.65625q0 -8.28125 3.484375 -15.421875q3.484375 -7.140625 9.65625 -11.34375q6.1875 -4.203125 13.984375 -4.203125q6.96875 0 11.15625 4.140625q4.203125 4.140625 4.203125 11.21875q0 8.28125 -5.9375 14.21875q-5.9375 5.9375 -20.21875 9.421875q2.875 5.515625 9.71875 5.515625q4.921875 0 8.09375 -2.265625q3.1875 -2.28125 7.390625 -7.6875q1.4375 -1.796875 3.234375 -1.796875zm-19.671875 -21.0q-4.453125 0 -7.515625 5.15625q-3.046875 5.15625 -3.046875 12.484375l0 0.234375q7.078125 -1.671875 11.15625 -5.03125q4.078125 -3.375 4.078125 -7.8125q0 -2.28125 -1.265625 -3.65625q-1.25 -1.375 -3.40625 -1.375zm60.71057 27.234375q1.328125 -1.203125 2.640625 -1.203125q1.4375 0 2.328125 1.625q0.90625 1.625 0.90625 3.90625q0 5.03125 -3.59375 8.03125q-6.234375 5.15625 -14.15625 5.15625q-11.40625 0 -16.6875 -9.53125q-5.28125 -9.546875 -5.28125 -24.90625q0 -14.640625 3.78125 -33.359375q3.78125 -18.71875 11.15625 -32.15625q7.390625 -13.4375 17.59375 -13.4375q5.75 0 9.046875 5.34375q3.3125 5.328125 3.3125 15.296875q0 14.28125 -7.859375 33.125q-7.859375 18.828125 -21.421875 37.1875q0.84375 4.921875 3.0 7.09375q2.15625 2.15625 5.875 2.15625q2.046875 0 4.625 -1.203125q2.578125 -1.203125 4.734375 -3.125zm-3.953125 -84.0q-2.765625 0 -6.25 9.96875q-3.46875 9.953125 -6.109375 24.71875q-2.640625 14.75 -2.890625 28.3125q8.53125 -14.03125 13.5625 -28.125q5.046875 -14.109375 5.046875 -25.75q0 -9.125 -3.359375 -9.125zm48.113083 84.0q1.328125 -1.203125 2.640625 -1.203125q1.4375 0 2.328125 1.625q0.90625 1.625 0.90625 3.90625q0 5.03125 -3.59375 8.03125q-6.234375 5.15625 -14.15625 5.15625q-11.40625 0 -16.6875 -9.53125q-5.28125 -9.546875 -5.28125 -24.90625q0 -14.640625 3.78125 -33.359375q3.78125 -18.71875 11.15625 -32.15625q7.390625 -13.4375 17.59375 -13.4375q5.75 0 9.046875 5.34375q3.3125 5.328125 3.3125 15.296875q0 14.28125 -7.859375 33.125q-7.859375 18.828125 -21.421875 37.1875q0.84375 4.921875 3.0 7.09375q2.15625 2.15625 5.875 2.15625q2.046875 0 4.625 -1.203125q2.578125 -1.203125 4.734375 -3.125zm-3.953125 -84.0q-2.765625 0 -6.25 9.96875q-3.46875 9.953125 -6.109375 24.71875q-2.640625 14.75 -2.890625 28.3125q8.53125 -14.03125 13.5625 -28.125q5.046875 -14.109375 5.046875 -25.75q0 -9.125 -3.359375 -9.125zm33.722473 101.515625q-7.09375 0 -12.078125 -3.53125q-4.96875 -3.546875 -7.5 -9.296875q-2.5156403 -5.765625 -2.5156403 -12.359375q0 -9.125 3.4218903 -16.265625q3.421875 -7.140625 9.296875 -11.15625q5.890625 -4.03125 13.203125 -4.03125q7.078125 0 12.125 3.546875q5.046875 3.546875 7.5625 9.3125q2.515625 5.75 2.515625 12.34375q0 9.125 -3.484375 16.265625q-3.46875 7.140625 -9.421875 11.15625q-5.9375 4.015625 -13.125 4.015625zm1.3125 -12.953125q4.078125 0 6.890625 -4.4375q2.828125 -4.4375 2.828125 -12.96875q0 -6.59375 -2.40625 -9.953125q-2.390625 -3.359375 -5.75 -3.359375q-4.328125 0 -7.15625 4.390625q-2.8125 4.375 -2.8125 13.0q0 6.84375 2.40625 10.09375q2.40625 3.234375 6.0 3.234375zm118.08179 -88.6875q3.125 0 5.28125 1.5q2.15625 1.5 2.15625 3.671875q0 3.828125 -2.40625 6.171875q-2.390625 2.34375 -6.828125 2.34375q-6.96875 0 -10.5625 0.125q-0.234375 1.4375 -2.15625 12.953125q-2.171875 12.84375 -2.640625 15.71875l-2.53125 15.71875q-2.640625 17.640625 -4.1875 29.53125q2.515625 -0.125 6.828125 -0.125q6.359375 0 8.640625 1.6875q2.28125 1.671875 2.28125 5.03125q0 3.125 -2.46875 5.28125q-2.453125 2.15625 -6.890625 2.15625q-3.0 0 -9.484375 -0.234375q-6.0 -0.25 -7.90625 -0.25q-7.5625 0 -16.5625 1.328125q-3.96875 0.59375 -5.640625 0.59375q-2.640625 0 -4.4375 -1.4375q-1.8125 -1.4375 -1.8125 -4.203125q0 -4.3125 3.84375 -6.703125q3.84375 -2.40625 10.796875 -2.53125l5.640625 -0.125l0.359375 -2.640625q2.890625 -19.203125 4.203125 -27.109375l2.640625 -15.71875q2.40625 -13.921875 4.328125 -28.6875l-10.078125 0.125q-4.328125 0 -5.953125 -1.375q-1.609375 -1.390625 -1.609375 -3.90625q0 -8.15625 11.75 -8.765625q5.53125 -0.234375 13.4375 -0.234375l21.96875 0.109375zm19.431213 29.640625q-2.625 0 -4.1875 -1.1875q-1.5625 -1.203125 -1.5625 -3.84375q0 -1.078125 0.359375 -2.515625q1.3125 -5.53125 1.96875 -10.203125q0.671875 -4.6875 0.671875 -10.4375q0 -6.0 2.8125 -9.234375q2.828125 -3.25 7.265625 -3.25q4.3125 0 6.53125 2.34375q2.234375 2.328125 2.234375 6.296875q0 4.203125 -2.53125 11.171875q-2.515625 6.953125 -6.109375 13.546875q-2.40625 4.4375 -3.796875 5.875q-1.375 1.4375 -3.65625 1.4375zm23.288727 72.0q-4.5625 0 -6.421875 -4.796875q-1.859375 -4.796875 -1.859375 -15.359375q0 -15.59375 4.4375 -29.640625q1.078125 -3.484375 3.53125 -5.09375q2.46875 -1.625 6.90625 -1.625q2.40625 0 3.359375 0.609375q0.96875 0.59375 0.96875 2.265625q0 1.921875 -1.796875 8.640625q-1.203125 4.8125 -1.921875 8.359375q-0.71875 3.53125 -1.203125 8.8125q3.234375 -9.359375 7.734375 -15.84375q4.5 -6.484375 9.234375 -9.65625q4.75 -3.1875 8.953125 -3.1875q4.203125 0 5.9375 1.921875q1.734375 1.921875 1.734375 5.875q0 3.84375 -2.28125 13.921875q-0.953125 4.328125 -1.3125 6.484375q3.953125 -10.078125 8.8125 -16.4375q4.859375 -6.359375 9.53125 -9.0625q4.6875 -2.703125 8.65625 -2.703125q3.84375 0 5.8125 1.984375q1.984375 1.984375 1.984375 5.8125q0 3.125 -1.3125 11.765625q-1.203125 7.3125 -1.921875 13.859375q-0.71875 6.546875 -0.71875 14.578125q0 4.5625 -1.859375 6.546875q-1.859375 1.96875 -6.0625 1.96875q-3.96875 0 -5.765625 -2.03125q-1.796875 -2.046875 -1.796875 -6.125q0 -4.796875 1.671875 -15.84375q1.453125 -9.59375 1.453125 -12.234375q0 -1.921875 -1.328125 -1.921875q-1.5625 0 -4.4375 4.03125q-2.875 4.015625 -5.765625 10.625q-2.875 6.59375 -4.671875 13.90625q-1.328125 5.765625 -3.0625 7.6875q-1.734375 1.90625 -5.578125 1.90625q-3.96875 0 -5.953125 -3.765625q-1.96875 -3.78125 -1.96875 -9.1875q0 -4.5625 1.203125 -13.203125q0.953125 -7.671875 0.953125 -10.078125q0 -1.921875 -1.3125 -1.921875q-1.796875 0 -4.5625 4.328125q-2.765625 4.3125 -5.34375 11.03125q-2.578125 6.71875 -4.140625 13.203125q-1.3125 5.640625 -3.0625 7.625q-1.734375 1.96875 -5.453125 1.96875zm206.28055 -100.1875q3.71875 0.71875 5.578125 2.515625q1.859375 1.796875 1.859375 4.203125q0 3.953125 -2.21875 5.765625q-2.21875 1.796875 -7.015625 1.421875q-10.8125 -0.828125 -16.875 -1.125q-6.046875 -0.3125 -15.890625 -0.421875q-4.4375 22.078125 -8.15625 44.390625q-1.328125 8.15625 -2.765625 18.90625q-1.4375 10.734375 -1.921875 17.34375q-0.234375 3.46875 -2.875 5.328125q-2.640625 1.859375 -6.359375 1.859375q-3.96875 0 -6.125 -1.90625q-2.15625 -1.921875 -2.15625 -5.046875q0 -2.875 0.890625 -9.53125q0.90625 -6.671875 2.109375 -13.984375q1.3125 -7.328125 2.046875 -12.71875q1.3125 -9.125 2.984375 -18.125q1.6875 -9.0 3.375 -17.046875q0.359375 -1.796875 0.828125 -4.125q0.484375 -2.34375 1.078125 -5.234375q-11.75 0.359375 -18.46875 1.921875q-6.71875 1.5625 -9.546875 4.390625q-2.8125 2.8125 -2.8125 7.25q0 4.078125 2.390625 7.796875q0.484375 0.84375 0.484375 1.8125q0 2.265625 -2.703125 4.25q-2.703125 1.984375 -5.578125 1.984375q-2.03125 0 -3.359375 -1.203125q-2.40625 -2.03125 -3.96875 -5.8125q-1.546875 -3.78125 -1.546875 -8.578125q0 -10.203125 6.65625 -16.375q6.65625 -6.1875 20.28125 -9.0625q13.625 -2.890625 34.984375 -2.890625q13.1875 0 21.046875 0.484375q7.875 0.46875 13.75 1.5625zm30.952393 43.671875q3.84375 0 5.828125 1.984375q1.984375 1.984375 1.984375 5.8125q0 3.125 -1.328125 11.765625q-1.203125 7.3125 -1.921875 13.859375q-0.71875 6.546875 -0.71875 14.578125q0 4.5625 -1.859375 6.546875q-1.859375 1.96875 -6.0625 1.96875q-3.953125 0 -5.765625 -2.03125q-1.796875 -2.046875 -1.796875 -6.125q0 -4.796875 1.6875 -15.84375q1.4375 -9.59375 1.4375 -12.234375q0 -1.921875 -1.3125 -1.921875q-1.5625 0 -4.453125 4.03125q-2.875 4.015625 -5.765625 10.625q-2.875 6.59375 -4.671875 13.90625q-1.3125 5.640625 -3.0625 7.625q-1.734375 1.96875 -5.453125 1.96875q-3.71875 0 -5.46875 -2.6875q-1.734375 -2.703125 -2.34375 -8.34375q-0.59375 -5.640625 -0.59375 -16.5625q0 -18.484375 3.78125 -38.515625q3.78125 -20.046875 11.15625 -33.65625q7.390625 -13.625 17.703125 -13.625q5.53125 0 8.9375 4.75q3.421875 4.734375 3.421875 12.28125q0 12.125 -7.078125 25.15625q-7.078125 13.015625 -23.03125 30.40625q-0.359375 6.25 -0.359375 12.84375q3.953125 -10.203125 8.8125 -16.625q4.859375 -6.421875 9.59375 -9.171875q4.75 -2.765625 8.703125 -2.765625zm-11.515625 -45.0q-2.15625 0 -4.796875 6.1875q-2.640625 6.171875 -5.109375 16.671875q-2.453125 10.5 -4.015625 22.859375q7.4375 -8.75 12.296875 -19.0625q4.859375 -10.328125 4.859375 -18.734375q0 -3.84375 -0.84375 -5.875q-0.828125 -2.046875 -2.390625 -2.046875zm44.393677 37.078125q-5.03125 0 -7.5625 -2.328125q-2.515625 -2.34375 -2.515625 -6.546875q0 -4.203125 3.296875 -7.015625q3.3125 -2.828125 8.234375 -2.828125q4.4375 0 7.1875 2.171875q2.765625 2.15625 2.765625 6.109375q0 4.796875 -3.125 7.625q-3.109375 2.8125 -8.28125 2.8125zm-11.515625 64.4375q-3.84375 0 -5.28125 -1.546875q-1.4375 -1.5625 -1.4375 -4.921875q0 -0.96875 0.234375 -3.359375q1.921875 -21.96875 6.375 -39.96875q0.953125 -3.71875 3.171875 -5.21875q2.21875 -1.5 7.140625 -1.5q5.15625 0 5.15625 4.203125q0 0.59375 -0.234375 2.28125q-5.40625 25.671875 -6.484375 43.078125q-0.234375 3.84375 -2.28125 5.40625q-2.03125 1.546875 -6.359375 1.546875zm64.56183 -23.75q1.5625 0 2.453125 1.4375q0.90625 1.4375 0.90625 3.953125q0 4.328125 -2.03125 7.453125q-3.359375 5.15625 -8.828125 8.03125q-5.453125 2.875 -13.015625 2.875q-11.515625 0 -17.890625 -6.890625q-6.359375 -6.90625 -6.359375 -18.65625q0 -8.28125 3.484375 -15.421875q3.484375 -7.140625 9.65625 -11.34375q6.1875 -4.203125 13.984375 -4.203125q6.96875 0 11.15625 4.140625q4.203125 4.140625 4.203125 11.21875q0 8.28125 -5.9375 14.21875q-5.9375 5.9375 -20.21875 9.421875q2.875 5.515625 9.71875 5.515625q4.921875 0 8.09375 -2.265625q3.1875 -2.28125 7.390625 -7.6875q1.4375 -1.796875 3.234375 -1.796875zm-19.671875 -21.0q-4.453125 0 -7.515625 5.15625q-3.046875 5.15625 -3.046875 12.484375l0 0.234375q7.078125 -1.671875 11.15625 -5.03125q4.078125 -3.375 4.078125 -7.8125q0 -2.28125 -1.265625 -3.65625q-1.25 -1.375 -3.40625 -1.375zm74.50745 4.671875q2.640625 0 4.5 1.859375q1.859375 1.859375 1.859375 4.625q0 1.5625 -0.71875 3.359375q-1.921875 4.4375 -5.40625 7.4375q-3.46875 3.0 -7.671875 3.0q-3.359375 0 -5.703125 -2.390625q-2.328125 -2.40625 -2.328125 -6.484375q0 -2.28125 0.234375 -4.921875q0.234375 -1.921875 0.234375 -2.640625q0 -0.953125 -0.421875 -1.4375q-0.40625 -0.484375 -1.015625 -0.484375q-1.671875 0 -4.5625 4.03125q-2.875 4.015625 -5.765625 10.625q-2.875 6.59375 -4.671875 13.90625q-1.3125 5.765625 -3.0 7.6875q-1.671875 1.90625 -5.515625 1.90625q-4.5625 0 -6.421875 -4.796875q-1.859375 -4.796875 -1.859375 -15.359375q0 -15.59375 4.4375 -29.640625q1.078125 -3.484375 3.53125 -5.09375q2.46875 -1.625 6.90625 -1.625q2.40625 0 3.359375 0.609375q0.96875 0.59375 0.96875 2.265625q0 1.921875 -1.796875 8.640625q-1.203125 4.8125 -1.921875 8.40625q-0.71875 3.59375 -1.203125 8.875q3.953125 -10.3125 8.875 -16.796875q4.921875 -6.484375 9.59375 -9.234375q4.6875 -2.765625 8.53125 -2.765625q3.484375 0 5.34375 1.984375q1.859375 1.984375 1.859375 5.8125q0 2.28125 -1.328125 8.640625l1.078125 0zm19.446838 40.078125q-4.5625 0 -6.421875 -4.796875q-1.859375 -4.796875 -1.859375 -15.359375q0 -15.59375 4.4375 -29.640625q1.078125 -3.484375 3.53125 -5.09375q2.46875 -1.625 6.90625 -1.625q2.40625 0 3.359375 0.609375q0.96875 0.59375 0.96875 2.265625q0 1.921875 -1.796875 8.640625q-1.203125 4.8125 -1.921875 8.40625q-0.71875 3.59375 -1.203125 8.875q3.953125 -10.3125 8.875 -16.796875q4.921875 -6.484375 9.65625 -9.234375q4.75 -2.765625 8.703125 -2.765625q3.84375 0 5.8125 1.984375q1.984375 1.984375 1.984375 5.8125q0 3.125 -1.3125 11.765625q-1.203125 7.3125 -1.921875 13.859375q-0.71875 6.546875 -0.71875 14.578125q0 4.5625 -1.859375 6.546875q-1.859375 1.96875 -6.0625 1.96875q-3.953125 0 -5.765625 -2.03125q-1.796875 -2.046875 -1.796875 -6.125q0 -4.796875 1.6875 -15.84375q1.4375 -9.59375 1.4375 -12.234375q0 -1.921875 -1.3125 -1.921875q-1.5625 0 -4.390625 4.03125q-2.8125 4.015625 -5.765625 10.625q-2.9375 6.59375 -4.734375 13.90625q-1.3125 5.640625 -3.0625 7.625q-1.734375 1.96875 -5.453125 1.96875zm69.84558 0q-7.09375 0 -12.078125 -3.53125q-4.96875 -3.546875 -7.5 -9.296875q-2.515625 -5.765625 -2.515625 -12.359375q0 -9.125 3.421875 -16.265625q3.421875 -7.140625 9.296875 -11.15625q5.890625 -4.03125 13.203125 -4.03125q7.078125 0 12.125 3.546875q5.046875 3.546875 7.5625 9.3125q2.515625 5.75 2.515625 12.34375q0 9.125 -3.484375 16.265625q-3.46875 7.140625 -9.421875 11.15625q-5.9375 4.015625 -13.125 4.015625zm1.3125 -12.953125q4.078125 0 6.890625 -4.4375q2.828125 -4.4375 2.828125 -12.96875q0 -6.59375 -2.40625 -9.953125q-2.390625 -3.359375 -5.75 -3.359375q-4.328125 0 -7.15625 4.390625q-2.8125 4.375 -2.8125 13.0q0 6.84375 2.40625 10.09375q2.40625 3.234375 6.0 3.234375z" fill-rule="nonzero"/></g></svg>