<svg version="1.1" viewBox="0.0 0.0 960.0 720.0" fill="none" stroke="none" stroke-linecap="square" stroke-miterlimit="10" xmlns:xlink="http://www.w3.org/1999/xlink" xmlns="http://www.w3.org/2000/svg"><clipPath id="p.0"><path d="m0 0l960.0 0l0 720.0l-960.0 0l0 -720.0z" clip-rule="nonzero"/></clipPath><g clip-path="url(#p.0)"><path fill="#000000" fill-opacity="0.0" d="m0 0l960.0 0l0 720.0l-960.0 0z" fill-rule="evenodd"/><path fill="#b30fb7" d="m940.4068 365.3491l-183.27777 50.897064l0 -101.79416zm-133.05591 -250.7916l-83.48547 137.20456l-92.174255 -71.97836zm-321.1173 -103.86983l65.17792 143.12062l-130.3558 0zm-321.15933 103.86983l175.70178 65.226204l-92.17424 71.97836zm-133.01389 250.7916l183.27779 -50.897095l0 101.79416zm133.01389 250.75876l83.52754 -137.17175l92.17424 71.97839zm321.15933 103.90265l-65.17789 -143.1206l130.3558 0zm321.1173 -103.90265l-175.65973 -65.19336l92.174255 -71.97839zm-548.2039 -250.75876c0 -97.93704 101.670135 -177.33072 227.08661 -177.33072c125.416504 0 227.08661 79.39368 227.08661 177.33072c0 97.93704 -101.670105 177.33072 -227.08661 177.33072c-125.41647 0 -227.08661 -79.39368 -227.08661 -177.33072z" fill-rule="evenodd"/><path stroke="#ffffff" stroke-width="1.0" stroke-linejoin="round" stroke-linecap="butt" d="m940.4068 365.3491l-183.27777 50.897064l0 -101.79416zm-133.05591 -250.7916l-83.48547 137.20456l-92.174255 -71.97836zm-321.1173 -103.86983l65.17792 143.12062l-130.3558 0zm-321.15933 103.86983l175.70178 65.226204l-92.17424 71.97836zm-133.01389 250.7916l183.27779 -50.897095l0 101.79416zm133.01389 250.75876l83.52754 -137.17175l92.17424 71.97839zm321.15933 103.90265l-65.17789 -143.1206l130.3558 0zm321.1173 -103.90265l-175.65973 -65.19336l92.174255 -71.97839zm-548.2039 -250.75876c0 -97.93704 101.670135 -177.33072 227.08661 -177.33072c125.416504 0 227.08661 79.39368 227.08661 177.33072c0 97.93704 -101.670105 177.33072 -227.08661 177.33072c-125.41647 0 -227.08661 -79.39368 -227.08661 -177.33072z" fill-rule="evenodd"/><path fill="#ffffff" d="m385.34116 399.3372q-1.546875 -0.28125 -3.125 -2.0625q-1.578125 -1.78125 -2.0625 -3.3125q0 -0.1875 -0.203125 -0.421875q-0.1875 -0.25 -0.28125 -0.34375q-0.375 -0.296875 -0.375 -3.171875q0 -2.296875 0.234375 -4.796875q0.234375 -2.5 0.625 -4.03125l1.734375 -5.09375l1.34375 -3.84375l2.578125 -5.5625l-3.828125 -1.0625q-0.671875 -0.09375 -1.109375 -0.65625q-0.4375 -0.578125 -0.4375 -1.0625q0 -0.765625 0.8125 -1.875q0.828125 -1.109375 1.3125 -1.109375q0.28125 0.109375 1.53125 0.109375q2.875 0 4.3125 -0.296875q0.96875 -0.375 1.34375 -1.53125q0.390625 -0.765625 0.921875 -1.921875q0.53125 -1.15625 1.0 -2.109375q0.296875 -0.578125 0.921875 -1.78125q0.625 -1.203125 1.578125 -2.734375q0.1875 -0.28125 0.859375 -1.390625q0.671875 -1.109375 1.640625 -1.875q0.671875 -0.671875 1.625 -0.671875q0.96875 0 2.5 1.25q0.1875 0.28125 0.515625 0.765625q0.34375 0.484375 0.34375 0.859375q0 0.390625 -0.765625 1.640625q-0.578125 1.15625 -1.109375 2.0625q-0.515625 0.90625 -0.90625 1.578125q-1.15625 1.921875 -1.625 2.890625q-0.96875 1.25 -0.96875 1.921875q0 0.671875 1.25 0.671875q1.34375 0 4.515625 -0.578125q1.34375 -0.203125 1.828125 -0.203125q3.359375 0 3.640625 2.796875q0.09375 0.5625 0.09375 1.34375q0 1.34375 -0.921875 1.625q-0.90625 0.28125 -4.0625 0.28125q-3.078125 0.484375 -6.34375 0.484375q-0.578125 0 -1.296875 0.046875q-0.71875 0.046875 -1.484375 0.25q-0.765625 0.1875 -1.109375 0.578125q-0.328125 0.375 -0.71875 1.234375q-0.28125 0.296875 -1.34375 2.21875q-1.34375 2.78125 -1.71875 3.359375q-2.59375 7.671875 -3.84375 15.734375q-0.1875 1.546875 -0.1875 1.921875q0 1.4375 0.953125 2.015625q0.96875 0.578125 3.265625 0.578125q3.265625 0 5.65625 -0.671875q2.890625 -1.25 4.328125 -2.109375q0.859375 -0.484375 1.578125 -0.90625q0.71875 -0.4375 1.015625 -0.625q0.28125 -0.578125 0.671875 -0.578125q0.765625 0 1.34375 1.53125q0 1.53125 -0.671875 2.6875q-0.671875 1.15625 -3.359375 2.6875q-5.578125 3.546875 -11.140625 3.546875q-1.53125 0 -2.875 -0.28125zm54.43222 -2.296875q-1.4375 0.765625 -3.078125 0.765625q-2.390625 0 -3.890625 -2.109375q-1.484375 -2.125 -1.484375 -5.671875q0 -1.625 0.671875 -5.421875q0.671875 -3.796875 1.53125 -6.296875q0.109375 -0.1875 0.296875 -0.765625q0.1875 -0.578125 0.140625 -0.8125q-0.046875 -0.234375 -0.234375 -0.234375q-0.484375 0 -1.734375 1.25q-2.6875 2.296875 -5.765625 5.8125q-3.0625 3.5 -5.078125 6.71875q-2.015625 3.203125 -2.015625 4.453125q0 1.0625 -0.828125 1.640625q-0.8125 0.5625 -1.859375 0.5625q-0.671875 0 -1.25 -0.28125q-1.4375 -0.859375 -1.96875 -1.921875q-0.53125 -1.0625 -0.53125 -3.078125q0 -1.625 0.09375 -2.578125q0.390625 -6.625 1.390625 -11.65625q1.015625 -5.046875 3.890625 -14.359375q0.09375 -0.296875 1.828125 -4.90625q2.96875 -8.4375 3.359375 -9.21875q0.671875 -0.671875 1.96875 -4.171875q1.296875 -3.5 1.296875 -4.265625q0 -1.4375 0.953125 -2.40625l0.96875 -0.953125q0.859375 0 2.015625 0.71875q1.15625 0.71875 1.4375 1.671875q0.671875 1.25 0.671875 2.6875q0 1.34375 -0.8125 3.3125q-0.8125 1.96875 -2.734375 5.71875q-2.796875 5.5625 -5.1875 12.765625q-1.0625 3.078125 -2.9375 9.5625q-1.859375 6.46875 -1.859375 7.53125q0 0.671875 0.671875 0.671875q0.765625 0 1.625 -1.15625q0.390625 -0.765625 3.65625 -3.75q0.375 -0.375 4.3125 -3.96875q3.9375 -3.609375 5.671875 -3.609375q1.140625 0 2.25 0.875q1.109375 0.859375 1.484375 2.0q0.390625 0.390625 0.578125 0.78125q0.1875 0.375 0.390625 0.5625q0.1875 0.203125 0.1875 1.15625q0 3.359375 -2.109375 9.703125q-1.640625 6.328125 -1.640625 7.578125q0 0.859375 0.484375 0.859375q0.28125 -0.1875 1.140625 -0.671875q0.875 -0.484375 2.03125 -1.15625q3.265625 -2.203125 5.75 -2.203125q1.15625 0 1.15625 0.765625q0 0.203125 -0.296875 0.6875q-0.28125 0.46875 -0.28125 0.75l0 0.484375q0 0.484375 -2.59375 2.890625q-2.59375 2.390625 -3.734375 2.6875zm23.709015 -39.078125q-0.671875 -0.671875 -1.15625 -2.296875q-0.46875 -1.640625 0 -1.640625q0.765625 -0.09375 1.765625 -1.671875q1.015625 -1.59375 0.921875 -2.640625q0 -0.390625 0.28125 -0.71875q0.296875 -0.34375 0.6875 -0.4375q0.765625 -0.484375 1.34375 -0.484375q1.625 0 2.96875 2.3125q0.578125 1.234375 0.578125 2.203125q0 0.859375 -0.484375 1.78125q-0.46875 0.90625 -1.71875 2.34375q-1.640625 2.203125 -3.078125 2.203125q-0.953125 0 -2.109375 -0.953125zm-9.3125 38.96875q-1.3437805 -1.34375 -1.3437805 -3.828125q0 -1.34375 0.484375 -2.3125q0 -0.484375 0.1875 -1.15625q0.18753052 -0.671875 0.18753052 -0.859375q-0.09378052 -0.578125 0.765625 -3.171875q1.734375 -3.828125 4.609375 -13.53125q0 -0.484375 0.375 -0.8125q0.390625 -0.34375 1.171875 -0.4375q0.765625 -0.1875 1.046875 -0.1875q0.578125 0 1.0 0.4375q0.4375 0.421875 1.21875 1.578125q0.5625 0.578125 0.5625 1.734375q0 1.8125 -1.234375 4.40625q-1.25 2.78125 -1.640625 4.796875q-1.15625 2.59375 -1.828125 4.8125q-0.1875 0.5625 -0.578125 2.296875q-0.375 1.734375 -1.046875 2.78125q-0.578125 2.6875 -1.0625 3.75q-0.46875 1.046875 -1.046875 1.046875q-0.671875 0 -1.828125 -1.34375zm26.108246 3.359375q-4.125 0 -6.8125 -3.0625q-2.6875 -3.078125 -2.6875 -7.6875q0 -4.609375 2.0625 -10.125q2.0625 -5.515625 5.328125 -9.921875q3.265625 -4.421875 6.625 -5.96875q1.921875 -1.046875 4.3125 -1.046875q1.828125 0 4.140625 1.046875q1.625 0.671875 2.484375 1.640625q0.875 0.953125 1.546875 2.96875q0.28125 1.734375 0.28125 2.40625q0 0.578125 -0.484375 2.5q-1.140625 3.546875 -3.015625 6.0q-1.875 2.4375 -4.84375 4.171875q-1.546875 0.953125 -3.84375 0.953125q-2.015625 0 -3.796875 -0.71875q-1.765625 -0.71875 -2.734375 -2.15625l-0.671875 -0.765625l-0.28125 0.765625q-2.015625 5.1875 -2.015625 8.828125q0 2.5 0.953125 4.03125q0.671875 1.0625 3.265625 1.0625q1.921875 0 2.78125 -0.390625q1.4375 -0.46875 2.546875 -1.1875q1.109375 -0.734375 2.15625 -1.5l0.390625 -0.1875l-0.09375 0q1.140625 -0.578125 1.90625 -1.046875q0.78125 -0.484375 1.0625 -0.6875q0.1875 0 0.375 -0.09375q0.203125 -0.09375 0.390625 -0.375q0.875 -0.390625 2.015625 0.28125q1.15625 0.671875 1.15625 1.734375q-0.1875 0.765625 -1.734375 2.5q-1.53125 1.71875 -2.296875 1.8125q-0.09375 0 -0.671875 0.296875q-0.578125 0.28125 -0.765625 0.46875l0.09375 0q-0.859375 1.15625 -1.734375 1.15625l-0.765625 0q-0.375 0.765625 -2.546875 1.53125q-2.15625 0.765625 -4.078125 0.765625zm4.328125 -21.109375q2.875 0 5.28125 -3.265625q2.296875 -3.078125 2.296875 -6.140625q0 -1.640625 -0.671875 -2.3125q-0.578125 -0.28125 -1.0625 -0.28125q-0.46875 0 -1.625 0.28125q-1.25 0.296875 -3.84375 2.65625q-2.59375 2.34375 -3.828125 4.15625l-1.25 2.015625q0.765625 -0.28125 1.484375 -0.328125q0.71875 -0.046875 0.8125 0.140625q0 1.34375 0.671875 2.21875q0.671875 0.859375 1.734375 0.859375zm22.465607 18.625q-0.390625 0.671875 -0.96875 0.671875q-0.578125 0 -1.203125 -0.375q-0.625 -0.390625 -0.71875 -0.5q-1.4375 0 -1.8125 -1.53125q-0.109375 -0.1875 -0.109375 -0.859375q0 -1.25 1.15625 -4.90625l0.671875 -3.0625q0.96875 -4.21875 1.734375 -7.109375q0.28125 -0.484375 1.140625 -3.265625q0.578125 -2.109375 1.546875 -4.125q1.140625 -4.3125 3.6405945 -8.546875q0.203125 -0.28125 0.765625 -0.765625q0.578125 -0.484375 0.875 -0.484375q0.578125 -0.5625 1.25 -0.5625q0.671875 0 1.71875 0.859375q0.96875 1.15625 0.96875 2.203125q0 1.828125 -2.40625 5.46875l-1.53125 3.75q-0.203125 0.484375 -0.96875 2.265625q-0.765625 1.765625 -0.9530945 3.203125q1.2499695 -1.71875 4.5155945 -4.984375q1.90625 -1.921875 3.15625 -2.828125q1.25 -0.921875 3.65625 -2.453125q1.71875 -1.25 3.0625 -1.828125q1.34375 -0.578125 2.984375 -0.578125q0.859375 0 1.34375 0.09375q1.34375 -0.09375 2.109375 1.359375q0.765625 1.4375 0.953125 3.734375q-1.140625 -0.1875 -1.625 -0.1875q-1.921875 0 -3.40625 0.765625q-1.484375 0.765625 -2.453125 1.484375q-0.953125 0.71875 -1.25 0.90625q-5.171875 3.359375 -8.0625 6.34375q-2.96875 3.265625 -4.171875 4.796875q-1.2030945 1.53125 -1.7812195 3.078125q-0.28125 0.671875 -1.625 3.984375q-1.34375 3.3125 -2.203125 3.984375zm63.731842 -2.21875q-1.921875 0 -3.171875 -0.8125q-1.234375 -0.8125 -2.109375 -2.734375q-0.859375 -3.078125 -0.859375 -6.140625q0 -1.4375 0.296875 -2.015625q0.375 -0.390625 0.328125 -1.6875q-0.046875 -1.296875 -0.046875 -1.875q-0.09375 -2.203125 -1.34375 -2.203125q-0.859375 0 -1.921875 0.671875q-5.375 3.359375 -9.03125 5.765625q-3.640625 2.390625 -7.0 5.375q-1.34375 1.53125 -2.015625 2.6875q-0.671875 1.15625 -0.96875 1.59375q-0.28125 0.421875 -0.765625 0.421875q-0.5625 0.1875 -0.765625 0.1875q-0.46875 0 -1.140625 -0.515625q-0.671875 -0.53125 -0.875 -0.734375q-0.375 -0.375 -1.25 -1.28125q-0.859375 -0.921875 -0.953125 -1.3125q0 -0.765625 0.625 -3.546875q0.625 -2.78125 1.0 -3.546875q0.296875 0 0.875 -1.203125q0.578125 -1.203125 1.046875 -1.875q0.296875 -1.4375 2.5 -6.625q1.34375 -2.296875 1.875 -3.828125q0.53125 -1.546875 0.71875 -3.84375l0 -0.203125q0 -0.375 0.28125 -0.609375q0.296875 -0.25 0.578125 -0.25q0.671875 -0.484375 1.25 -0.484375q1.25 0 2.5 1.546875q1.4375 1.8125 1.4375 3.84375q0 2.484375 -3.171875 7.859375q-0.28125 0.671875 -0.8125 1.921875q-0.53125 1.25 -0.53125 1.734375l5.375 -3.65625q0.765625 -0.859375 4.125 -3.0625q3.375 -2.21875 4.71875 -2.5q2.296875 -1.0625 2.875 -1.0625q1.15625 0 3.125 1.734375q1.96875 1.734375 2.34375 2.875q0 1.0625 0.1875 1.546875q0.484375 1.90625 0.484375 4.5q0 1.734375 -0.25 3.125q-0.234375 1.390625 -0.609375 1.578125q0 0.109375 0.09375 0.296875q0.09375 0.1875 0.390625 0.1875l0 0.484375q-0.78125 0 -0.203125 1.640625q0.578125 1.625 1.546875 2.484375q0.953125 0.953125 0.953125 1.921875q0 1.15625 -1.734375 1.625zm18.918701 3.84375q-1.15625 0.09375 -1.875 -0.140625q-0.71875 -0.234375 -2.0625 -1.109375q-4.125 -3.359375 -4.03125 -6.625q0.09375 -0.28125 0.09375 -0.859375q0 -0.578125 -0.09375 -0.90625q-0.09375 -0.34375 -0.09375 -0.4375q-0.390625 -0.28125 -0.4375 -0.421875q-0.046875 -0.15625 0.09375 -0.34375q0.15625 -0.1875 0.25 -0.390625q0.375 -0.09375 0.375 -0.375q0 -0.296875 -0.1875 -0.671875q-0.28125 -0.765625 0.328125 -3.5q0.625 -2.75 1.6875 -5.140625q0.765625 -1.828125 2.4375 -4.703125q1.6875 -2.890625 3.125 -4.421875q2.015625 -2.296875 3.6875 -3.546875q1.6875 -1.25 3.90625 -2.015625q2.015625 -0.875 2.78125 -0.875q0.953125 0 2.40625 1.15625q2.296875 0.671875 3.5 1.875q1.203125 1.203125 1.875 3.6875q0.5625 2.03125 0.5625 4.515625q0 5.375 -3.359375 11.8125q-1.71875 3.453125 -3.359375 5.328125q-1.625 1.875 -4.5 4.375q-2.015625 1.625 -3.515625 2.5q-1.484375 0.859375 -3.59375 1.234375zm7.671875 -11.421875q2.015625 -2.96875 3.078125 -5.421875q1.0625 -2.453125 1.734375 -6.09375q0.09375 -0.390625 0.09375 -1.546875q0 -1.90625 -0.390625 -3.640625q-0.375 -1.734375 -0.953125 -1.828125q-0.765625 -0.28125 -1.4375 -0.28125q-2.21875 0 -4.703125 2.59375q-2.3125 2.6875 -4.0 6.484375q-1.671875 3.78125 -3.296875 9.25q-0.484375 1.921875 -0.484375 3.078125q0 1.71875 0.671875 2.734375q0.671875 1.015625 1.921875 1.015625q1.53125 0 3.546875 -1.578125q2.015625 -1.59375 4.21875 -4.765625z" fill-rule="nonzero"/></g></svg>