<svg version="1.1" viewBox="0.0 0.0 960.0 720.0" fill="none" stroke="none" stroke-linecap="square" stroke-miterlimit="10" xmlns:xlink="http://www.w3.org/1999/xlink" xmlns="http://www.w3.org/2000/svg"><clipPath id="p.0"><path d="m0 0l960.0 0l0 720.0l-960.0 0l0 -720.0z" clip-rule="nonzero"/></clipPath><g clip-path="url(#p.0)"><path fill="#000000" fill-opacity="0.0" d="m0 0l960.0 0l0 720.0l-960.0 0z" fill-rule="evenodd"/><path fill="#000000" fill-opacity="0.0" d="m0 199.70866l960.0 0l0 235.1811l-960.0 0z" fill-rule="evenodd"/><path fill="#b30fb7" d="m352.68762 266.94928q0 13.59375 -7.046875 24.953125q-7.046875 11.359375 -20.484375 18.5625q-13.4375 7.203125 -32.0 8.484375l-6.875 38.5625q-4.0 22.234375 -21.765625 22.234375q-9.75 0 -18.0 -5.765625q-8.234375 -5.75 -13.203125 -17.59375q-4.953125 -11.84375 -4.953125 -29.125q0 -32.46875 10.46875 -55.109375q10.484375 -22.640625 28.171875 -33.921875q17.6875 -11.28125 38.953125 -11.28125q15.046875 0 25.515625 5.28125q10.484375 5.28125 15.84375 14.328125q5.375 9.03125 5.375 20.390625zm-56.640625 35.515625q32.796875 -4.15625 32.796875 -34.078125q0 -10.5625 -6.96875 -17.203125q-6.953125 -6.640625 -21.515625 -6.640625q-16.484375 0 -28.71875 10.40625q-12.234375 10.40625 -18.875 28.890625q-6.640625 18.46875 -6.640625 42.15625q0 9.90625 2.0 17.59375q2.0 7.671875 5.109375 11.921875q3.125 4.234375 6.0 4.234375q4.0 0 6.078125 -11.03125l5.28125 -30.25q-6.234375 -0.953125 -5.4375 -0.796875q-4.796875 -0.796875 -6.234375 -2.953125q-1.4375 -2.171875 -1.4375 -5.53125q0 -3.515625 2.0 -5.59375q2.0 -2.078125 5.515625 -2.078125q1.59375 0 2.40625 0.15625q3.828125 0.640625 5.90625 0.796875q2.09375 -12.46875 5.921875 -33.4375q0.96875 -5.4375 4.40625 -7.75q3.4375 -2.328125 8.078125 -2.328125q5.28125 0 7.59375 2.0q2.328125 2.0 2.328125 6.3125q0 2.5625 -0.328125 4.171875l-5.265625 31.03125zm126.065674 7.203125q3.53125 0 6.0 2.484375q2.484375 2.46875 2.484375 6.15625q0 2.078125 -0.953125 4.484375q-2.5625 5.921875 -7.203125 9.921875q-4.640625 4.0 -10.234375 4.0q-4.484375 0 -7.609375 -3.203125q-3.109375 -3.203125 -3.109375 -8.640625q0 -3.046875 0.3125 -6.5625q0.3125 -2.5625 0.3125 -3.515625q0 -1.28125 -0.5625 -1.921875q-0.546875 -0.640625 -1.34375 -0.640625q-2.25 0 -6.09375 5.359375q-3.828125 5.359375 -7.671875 14.15625q-3.84375 8.796875 -6.234375 18.5625q-1.765625 7.6875 -4.015625 10.25q-2.234375 2.546875 -7.34375 2.546875q-6.09375 0 -8.578125 -6.390625q-2.46875 -6.40625 -2.46875 -20.484375q0 -20.796875 5.921875 -39.515625q1.4375 -4.640625 4.71875 -6.796875q3.28125 -2.171875 9.203125 -2.171875q3.203125 0 4.46875 0.8125q1.28125 0.796875 1.28125 3.03125q0 2.5625 -2.390625 11.515625q-1.609375 6.40625 -2.5625 11.203125q-0.953125 4.796875 -1.59375 11.84375q5.265625 -13.765625 11.828125 -22.40625q6.5625 -8.640625 12.796875 -12.3125q6.25 -3.6875 11.375 -3.6875q4.640625 0 7.109375 2.640625q2.484375 2.640625 2.484375 7.765625q0 3.03125 -1.765625 11.515625l1.4375 0zm41.606293 53.4375q-9.4375 0 -16.078125 -4.71875q-6.640625 -4.71875 -10.0 -12.390625q-3.359375 -7.6875 -3.359375 -16.484375q0 -12.15625 4.5625 -21.671875q4.5625 -9.53125 12.390625 -14.890625q7.84375 -5.359375 17.609375 -5.359375q9.4375 0 16.15625 4.71875q6.71875 4.71875 10.078125 12.40625q3.359375 7.671875 3.359375 16.46875q0 12.171875 -4.640625 21.6875q-4.640625 9.515625 -12.5625 14.875q-7.921875 5.359375 -17.515625 5.359375zm1.765625 -17.28125q5.4375 0 9.1875 -5.90625q3.765625 -5.921875 3.765625 -17.296875q0 -8.796875 -3.203125 -13.265625q-3.1875 -4.484375 -7.671875 -4.484375q-5.765625 0 -9.53125 5.84375q-3.75 5.828125 -3.75 17.359375q0 9.109375 3.203125 13.4375q3.203125 4.3125 8.0 4.3125zm63.51126 -93.59375q5.921875 0 9.59375 2.890625q3.6875 2.875 3.6875 8.140625q0 6.40625 -4.15625 10.171875q-4.15625 3.75 -11.046875 3.75q-6.71875 0 -10.078125 -3.109375q-3.359375 -3.125 -3.359375 -8.71875q0 -5.609375 4.390625 -9.359375q4.40625 -3.765625 10.96875 -3.765625zm-1.921875 35.515625q4.8125 0 6.328125 1.4375q1.515625 1.4375 1.515625 4.0q0 6.890625 -4.953125 39.203125q-0.640625 3.84375 -2.078125 13.609375q-5.921875 40.953125 -16.484344 65.03125q-10.5625 24.078125 -27.84375 24.078125q-8.3125 0 -13.34375 -5.046875q-5.046875 -5.03125 -5.046875 -13.1875q0 -11.359375 8.796875 -24.25q8.796875 -12.875 33.109375 -31.75l1.125 -8.15625q2.234375 -15.359375 3.515625 -30.25q0.9687195 -8.640625 3.0468445 -25.75q0.640625 -4.640625 3.515625 -6.796875q2.890625 -2.171875 8.796875 -2.171875zm-41.74997 131.84375q4.15625 0 9.125 -9.4375q4.953125 -9.4375 9.265625 -30.40625q-12.15625 10.40625 -17.515625 18.796875q-5.359375 8.40625 -5.359375 14.8125q0 6.234375 4.484375 6.234375zm117.74936 -88.15625q2.09375 0 3.28125 1.921875q1.203125 1.90625 1.203125 5.265625q0 5.765625 -2.71875 9.921875q-4.484375 6.890625 -11.765625 10.734375q-7.265625 3.828125 -17.359375 3.828125q-15.359375 0 -23.84375 -9.1875q-8.46875 -9.203125 -8.46875 -24.890625q0 -11.03125 4.640625 -20.546875q4.640625 -9.53125 12.875 -15.125q8.25 -5.609375 18.640625 -5.609375q9.28125 0 14.875 5.53125q5.609375 5.515625 5.609375 14.953125q0 11.03125 -7.921875 18.953125q-7.921875 7.921875 -26.953125 12.5625q3.828125 7.359375 12.953125 7.359375q6.5625 0 10.796875 -3.03125q4.25 -3.046875 9.84375 -10.25q1.921875 -2.390625 4.3125 -2.390625zm-26.234375 -28.0q-5.921875 0 -10.0 6.875q-4.078125 6.875 -4.078125 16.640625l0 0.3125q9.4375 -2.234375 14.875 -6.703125q5.4375 -4.484375 5.4375 -10.40625q0 -3.046875 -1.6875 -4.875q-1.671875 -1.84375 -4.546875 -1.84375zm64.47876 59.671875q-15.203125 0 -23.765625 -8.875q-8.546875 -8.875 -8.546875 -23.4375q0 -12.96875 5.109375 -22.71875q5.125 -9.765625 13.28125 -15.046875q8.171875 -5.28125 17.125 -5.28125q8.796875 0 13.671875 5.203125q4.890625 5.203125 4.890625 13.359375q0 6.71875 -2.96875 11.359375q-2.953125 4.640625 -7.75 4.640625q-3.046875 0 -4.890625 -1.4375q-1.828125 -1.4375 -1.828125 -4.0q0 -1.125 0.3125 -2.5625q0.328125 -1.4375 0.484375 -2.078125q0.796875 -2.40625 0.796875 -4.484375q0 -2.078125 -1.046875 -3.1875q-1.03125 -1.125 -2.953125 -1.125q-3.671875 0 -6.875 3.28125q-3.203125 3.28125 -5.125 8.875q-1.921875 5.59375 -1.921875 12.3125q0 9.125 3.75 13.84375q3.765625 4.71875 10.65625 4.71875q5.4375 0 10.0 -3.1875q4.5625 -3.203125 9.03125 -9.453125q1.921875 -2.390625 4.328125 -2.390625q2.078125 0 3.28125 1.921875q1.203125 1.90625 1.203125 5.265625q0 5.765625 -2.734375 9.921875q-4.3125 6.71875 -11.359375 10.640625q-7.03125 3.921875 -16.15625 3.921875zm61.28064 -60.15625q-0.3125 8.0 -0.3125 12.484375q0 11.515625 1.1875 18.0q1.203125 6.46875 4.0 9.28125q2.8125 2.796875 7.765625 2.796875q2.5625 0 6.078125 -1.59375q3.515625 -1.609375 6.40625 -4.171875q1.75 -1.59375 3.515625 -1.59375q1.921875 0 3.125 2.15625q1.203125 2.15625 1.203125 5.203125q0 3.03125 -1.203125 5.921875q-1.203125 2.875 -3.609375 4.796875q-8.3125 6.875 -18.875 6.875q-15.203125 0 -22.25 -12.71875q-7.03125 -12.71875 -7.03125 -33.203125q0 -7.03125 0.484375 -14.234375l-6.25 0q-4.796875 0 -6.484375 -1.75q-1.671875 -1.765625 -1.671875 -5.609375q0 -8.96875 7.203125 -8.96875l9.125 0q2.71875 -17.59375 8.3125 -32.15625q5.609375 -14.5625 13.515625 -23.203125q7.921875 -8.640625 17.046875 -8.640625q6.71875 0 10.5625 5.921875q3.84375 5.921875 3.84375 14.890625q0 24.796875 -20.8125 43.1875l17.921875 0q2.5625 0 3.6875 1.125q1.125 1.125 1.125 4.15625q0 11.046875 -18.09375 11.046875l-19.515625 0zm16.96875 -64.953125q-2.40625 0 -5.375 6.0q-2.953125 6.0 -5.59375 16.640625q-2.640625 10.625 -4.390625 23.59375q9.4375 -8.15625 14.15625 -18.3125q4.71875 -10.171875 4.71875 -18.484375q0 -9.4375 -3.515625 -9.4375zm52.470642 128.625q-8.3125 0 -12.71875 -3.84375q-4.40625 -3.828125 -4.40625 -8.625q0 -4.15625 3.046875 -7.203125q3.046875 -3.046875 8.953125 -3.046875q2.09375 0 4.890625 0.40625q2.796875 0.40625 4.234375 0.5625q-0.15625 -4.15625 -1.84375 -7.828125q-1.671875 -3.6875 -4.234375 -7.125q-2.5625 -3.453125 -4.796875 -6.015625q-4.96875 9.453125 -9.84375 15.6875q-4.875 6.234375 -10.640625 11.84375q-2.875 2.875 -6.078125 2.875q-2.5625 0 -4.15625 -1.84375q-1.609375 -1.84375 -1.609375 -4.5625q0 -3.1875 2.25 -5.90625l2.078125 -2.5625q8.796875 -10.890625 13.28125 -17.921875q2.875 -4.640625 5.828125 -11.03125q2.96875 -6.40625 7.765625 -17.453125q3.046875 -7.03125 12.640625 -7.03125q4.484375 0 6.234375 0.796875q1.765625 0.796875 1.765625 2.5625q0 0.953125 -0.640625 3.03125q-0.640625 2.078125 -1.75 4.15625q-2.890625 5.765625 -2.890625 9.765625q0 2.40625 1.671875 5.28125q1.6875 2.875 5.21875 7.203125q5.109375 6.71875 7.75 11.4375q2.640625 4.71875 2.640625 10.3125q0 6.71875 -3.125 12.71875q-3.109375 6.0 -8.71875 9.671875q-5.59375 3.6875 -12.796875 3.6875z" fill-rule="nonzero"/></g></svg>